<svg
   width="32"
   height="32"
   xmlns="http://www.w3.org/2000/svg"
>
  <g
     fill="none"
     fill-rule="evenodd"
     id="g4"
     transform="matrix(0.7,0,0,0.7,-3.5805171,-2.6862021)">
    <path
       d="m 28,12.998 a 2.641,2.641 0 0 1 2.626,2.626 c 0,0.702 -0.274,1.36 -0.752,1.85 l -0.135,0.13 -0.077,0.063 v 0.629 l 0.268,0.057 a 8.864,8.864 0 0 1 2.307,0.902 l 0.309,0.182 0.244,0.157 0.463,-0.462 -0.009,-0.102 a 2.666,2.666 0 0 1 0.52,-1.728 l 0.13,-0.163 0.131,-0.14 a 2.646,2.646 0 0 1 3.73,0 2.646,2.646 0 0 1 0,3.73 2.738,2.738 0 0 1 -1.848,0.78 l -0.187,-0.002 -0.098,-0.008 -0.463,0.463 0.162,0.251 c 0.442,0.716 0.776,1.472 0.995,2.265 l 0.087,0.343 0.056,0.27 h 0.627 l 0.065,-0.076 c 0.412,-0.463 0.97,-0.766 1.582,-0.858 l 0.206,-0.023 0.19,-0.006 a 2.62,2.62 0 0 1 2.627,2.626 2.641,2.641 0 0 1 -2.626,2.626 c -0.702,0 -1.36,-0.275 -1.85,-0.752 l -0.13,-0.135 -0.064,-0.077 h -0.629 l -0.056,0.268 a 8.864,8.864 0 0 1 -0.902,2.306 l -0.182,0.31 -0.158,0.244 0.463,0.463 0.102,-0.009 a 2.666,2.666 0 0 1 1.728,0.52 l 0.163,0.13 0.14,0.131 a 2.646,2.646 0 0 1 0,3.73 2.646,2.646 0 0 1 -3.73,0 2.738,2.738 0 0 1 -0.78,-1.848 l 0.001,-0.187 0.008,-0.098 -0.463,-0.463 -0.25,0.162 a 8.724,8.724 0 0 1 -2.266,0.995 l -0.342,0.087 -0.271,0.056 v 0.627 l 0.077,0.064 c 0.462,0.413 0.766,0.97 0.858,1.583 l 0.022,0.206 0.007,0.19 A 2.62,2.62 0 0 1 28,40.51 2.62,2.62 0 0 1 25.374,37.883 c 0,-0.701 0.274,-1.36 0.752,-1.85 l 0.135,-0.129 0.076,-0.064 V 35.211 L 26.07,35.155 a 8.864,8.864 0 0 1 -2.307,-0.903 l -0.309,-0.181 -0.246,-0.158 -0.462,0.462 0.01,0.103 a 2.666,2.666 0 0 1 -0.52,1.728 l -0.13,0.163 -0.131,0.14 a 2.646,2.646 0 0 1 -3.73,0 2.646,2.646 0 0 1 0,-3.73 2.738,2.738 0 0 1 1.848,-0.78 L 20.28,32 l 0.096,0.008 0.464,-0.464 -0.161,-0.25 A 8.724,8.724 0 0 1 19.684,29.029 L 19.597,28.687 19.54,28.416 h -0.627 l -0.064,0.077 c -0.412,0.462 -0.97,0.766 -1.582,0.858 l -0.206,0.022 -0.19,0.007 a 2.62,2.62 0 0 1 -2.627,-2.626 2.641,2.641 0 0 1 2.626,-2.626 c 0.702,0 1.36,0.274 1.85,0.751 l 0.13,0.136 0.063,0.076 h 0.629 l 0.057,-0.268 a 8.864,8.864 0 0 1 0.902,-2.306 l 0.182,-0.309 0.157,-0.246 -0.462,-0.462 -0.102,0.01 a 2.666,2.666 0 0 1 -1.728,-0.52 l -0.163,-0.13 -0.14,-0.131 a 2.646,2.646 0 0 1 0,-3.73 2.646,2.646 0 0 1 3.73,0 c 0.483,0.483 0.762,1.162 0.78,1.847 l -10e-4,0.188 -0.009,0.097 0.463,0.462 0.251,-0.16 a 8.724,8.724 0 0 1 2.266,-0.995 l 0.342,-0.087 0.27,-0.057 V 17.667 L 26.261,17.603 A 2.645,2.645 0 0 1 25.403,16.02 l -0.022,-0.206 -0.007,-0.19 A 2.62,2.62 0 0 1 28,12.998 Z m -0.018,24.059 -0.017,0.019 a 0.745,0.745 0 0 1 -0.273,0.158 0.684,0.684 0 0 0 -0.388,0.616 c 0,0.355 0.308,0.663 0.663,0.663 A 0.677,0.677 0 0 0 28.63,37.85 0.674,0.674 0 0 0 28.28,37.251 0.904,0.904 0 0 1 28.08,37.14 Z m 9.521,-2.463 c 0,0.469 -0.154,0.86 -0.492,1.197 -0.484,0.45 -1.19,0.57 -1.779,0.353 a 1.65,1.65 0 0 0 1.816,-0.342 1.648,1.648 0 0 0 0.277,-1.946 l 0.058,0.129 c 0.078,0.196 0.12,0.403 0.12,0.61 z M 19.616,34.117 c -0.132,0.133 -0.186,0.268 -0.186,0.477 0,0.161 0.077,0.348 0.186,0.477 0.239,0.24 0.696,0.24 0.954,0 a 0.63,0.63 0 0 0 0.155,-0.69 0.943,0.943 0 0 1 -0.06,-0.233 l -0.008,-0.122 -0.083,-0.004 -0.13,-0.02 -0.132,-0.037 a 0.633,0.633 0 0 0 -0.696,0.152 z m 16.012,-0.155 a 0.943,0.943 0 0 1 -0.234,0.06 l -0.122,0.007 -0.003,0.084 a 1.195,1.195 0 0 1 -0.022,0.13 l -0.036,0.132 a 0.633,0.633 0 0 0 0.153,0.696 c 0.238,0.24 0.696,0.24 0.954,0 0.132,-0.132 0.185,-0.268 0.185,-0.477 a 0.795,0.795 0 0 0 -0.185,-0.477 0.63,0.63 0 0 0 -0.69,-0.155 z m -2.763,-1.37 -0.241,0.19 a 7.687,7.687 0 0 1 -3.626,1.506 l -0.331,0.038 -0.001,0.034 0.424,-0.061 a 7.672,7.672 0 0 0 3.175,-1.235 l 0.291,-0.203 0.334,-0.244 z m -4.874,-12.76 -0.061,0.055 c -0.143,0.116 -0.32,0.194 -0.516,0.222 a 6.714,6.714 0 0 0 -3.679,1.514 0.936,0.936 0 0 1 -0.542,0.22 h -0.068 v 0.015 a 0.978,0.978 0 0 1 -0.147,0.46 l -0.074,0.102 a 6.732,6.732 0 0 0 -1.517,3.698 1,1 0 0 1 -0.216,0.513 l -0.06,0.064 0.056,0.062 c 0.092,0.115 0.16,0.25 0.199,0.4 l 0.022,0.116 a 6.714,6.714 0 0 0 1.514,3.679 c 0.14,0.167 0.218,0.362 0.234,0.56 l 0.001,0.093 0.063,0.004 a 0.944,0.944 0 0 1 0.424,0.144 l 0.076,0.063 a 6.732,6.732 0 0 0 3.698,1.518 1,1 0 0 1 0.512,0.215 l 0.065,0.059 0.062,-0.054 c 0.114,-0.092 0.25,-0.161 0.4,-0.2 l 0.116,-0.022 a 6.714,6.714 0 0 0 3.678,-1.514 0.999,0.999 0 0 1 0.56,-0.233 l 0.049,-0.002 10e-4,-0.033 c 0.01,-0.16 0.059,-0.32 0.147,-0.46 l 0.075,-0.103 A 6.732,6.732 0 0 0 34.58,27.29 c 0.024,-0.19 0.095,-0.36 0.202,-0.496 l 0.09,-0.101 -0.039,-0.043 a 1.046,1.046 0 0 1 -0.199,-0.4 l -0.022,-0.115 a 6.714,6.714 0 0 0 -1.514,-3.68 0.999,0.999 0 0 1 -0.234,-0.558 l -10e-4,-0.051 h -0.034 a 0.978,0.978 0 0 1 -0.46,-0.147 l -0.102,-0.074 a 6.732,6.732 0 0 0 -3.698,-1.518 1,1 0 0 1 -0.513,-0.215 z m 7.581,7.586 -0.032,0.29 a 7.708,7.708 0 0 1 -1.513,3.672 l -0.189,0.239 0.025,0.025 0.244,-0.334 a 7.939,7.939 0 0 0 1.38,-3.132 l 0.058,-0.336 0.064,-0.423 z m -15.178,-0.03 -2.029,-0.001 c 0.019,0 0.024,0.002 0.024,0.006 l -0.008,0.016 c -0.288,0.575 -0.863,0.941 -1.51,0.941 a 1.675,1.675 0 0 1 -1.45,-0.856 c 0.267,0.527 0.811,0.886 1.45,0.886 0.5,0 0.965,-0.224 1.279,-0.607 l 0.098,-0.134 0.149,-0.222 h 1.995 l 0.026,0.179 -0.024,-0.209 z m 18.736,-1.33 a 0.674,0.674 0 0 0 -0.6,0.35 0.904,0.904 0 0 1 -0.11,0.2 l -0.084,0.096 0.019,0.018 a 0.763,0.763 0 0 1 0.12,0.175 l 0.039,0.098 c 0.12,0.24 0.352,0.388 0.616,0.388 A 0.677,0.677 0 0 0 39.792,26.721 0.677,0.677 0 0 0 39.13,26.058 Z M 16.87,26.025 a 0.677,0.677 0 0 0 -0.662,0.662 c 0,0.355 0.307,0.663 0.662,0.663 a 0.674,0.674 0 0 0 0.6,-0.35 0.904,0.904 0 0 1 0.11,-0.2 l 0.083,-0.097 -0.018,-0.017 a 0.763,0.763 0 0 1 -0.12,-0.175 L 17.486,26.413 A 0.684,0.684 0 0 0 16.87,26.025 Z m 1.63,-6.879 0.016,0.086 c 0.066,0.29 0.211,0.565 0.436,0.79 0.36,0.36 0.848,0.53 1.346,0.483 l 0.167,-0.023 0.26,-0.05 1.383,1.383 0.02,-0.027 -1.384,-1.388 -0.035,-0.022 c -0.622,0.236 -1.296,0.09 -1.793,-0.408 A 1.887,1.887 0 0 1 18.499,19.146 Z M 35.397,18.37 a 0.63,0.63 0 0 0 -0.155,0.69 c 0.03,0.076 0.05,0.154 0.06,0.234 l 0.007,0.12 0.083,0.005 c 0.044,0.004 0.087,0.011 0.131,0.021 l 0.132,0.036 c 0.247,0.096 0.503,0.04 0.696,-0.152 0.132,-0.133 0.186,-0.268 0.186,-0.477 A 0.795,0.795 0 0 0 36.351,18.37 c -0.239,-0.239 -0.697,-0.239 -0.954,0 z M 19.649,18.337 c -0.132,0.132 -0.186,0.268 -0.186,0.477 0,0.16 0.078,0.348 0.186,0.477 a 0.63,0.63 0 0 0 0.69,0.155 0.94,0.94 0 0 1 0.354,-0.068 l 0.005,-0.083 a 1.24,1.24 0 0 1 0.058,-0.262 0.633,0.633 0 0 0 -0.153,-0.696 c -0.239,-0.24 -0.696,-0.24 -0.954,0 z M 28,14.928 a 0.677,0.677 0 0 0 -0.663,0.663 c 0,0.264 0.148,0.496 0.35,0.599 0.07,0.028 0.138,0.066 0.2,0.111 l 0.097,0.082 0.017,-0.017 a 0.763,0.763 0 0 1 0.175,-0.12 l 0.099,-0.04 A 0.684,0.684 0 0 0 28.663,15.591 0.677,0.677 0 0 0 28,14.928 Z"
       fill="#80898f"
       fill-rule="nonzero"
       id="path2" />
  </g>
</svg>
