<svg width="33" height="33" xmlns="http://www.w3.org/2000/svg">
    <path d="M24.988 18.405h-5.41l-.261-.386a2.116 2.116 0 0 1-.245-1.888l1.558-4.405.002-.006c.237-.6.322-1.233.252-1.88-.204-1.885-1.788-3.392-3.686-3.504a3.917 3.917 0 0 0-2.951 1.068 3.957 3.957 0 0 0-1.24 2.868c0 .499.094.985.277 1.448 0 .002 0 .004.002.006l1.557 4.405c.223.63.132 1.335-.244 1.888l-.263.386H8.987c-.773 0-1.401.629-1.401 1.402v2.91c0 .233.176.422.403.448v2.191c0 .251.203.454.453.454h17.09c.251 0 .455-.203.455-.454v-2.19a.452.452 0 0 0 .403-.45v-2.91c0-.772-.63-1.401-1.402-1.401zm-9.289-2.577-1.55-4.382a3.014 3.014 0 0 1-.234-1.174c0-.844.34-1.628.955-2.207a3.025 3.025 0 0 1 2.275-.823c1.46.087 2.68 1.245 2.837 2.695.054.507-.013 1-.202 1.468a.436.436 0 0 0-.014.041l-1.55 4.382c-.302.854-.2 1.807.27 2.577H15.43c.47-.77.571-1.723.27-2.577zm-6.712 3.485h16.001c.272 0 .494.221.494.494v2.455H8.493v-2.455c0-.273.222-.494.494-.494zm16.092 5.33H8.896V23.17H25.08v1.473z" fill="#80898F" fill-rule="nonzero" stroke="#80898F" stroke-width=".8"/>
</svg>
