<svg width="33" height="33" xmlns="http://www.w3.org/2000/svg">
    <path d="m6.89 22.373 7.866-7.171-.925-.925a1.572 1.572 0 0 1-.903.254c-.44 0-.856-.162-1.203-.486l-.879-.879a1.659 1.659 0 0 1-.485-1.203c0-.44.185-.879.485-1.203l5.136-5.135a1.704 1.704 0 0 1 2.383 0l.879.879c.324.324.486.74.486 1.203 0 .323-.093.624-.255.902l5.043 5.043c.648-.393 1.55-.324 2.082.231l.88.88c.323.323.485.74.485 1.202 0 .44-.185.88-.486 1.203l-5.135 5.136a1.697 1.697 0 0 1-1.203.486c-.44 0-.856-.162-1.203-.486l-.88-.88c-.578-.578-.647-1.434-.23-2.104l-.926-.926-7.171 7.866c-.51.555-1.203.879-1.944.879h-.069a2.641 2.641 0 0 1-1.92-.81 2.684 2.684 0 0 1-.787-1.99c.024-.74.324-1.457.88-1.966zm16.564-7.726L18.48 9.673l-3.608 3.609 4.973 4.95 3.61-3.585zm-5.228-7.102-.88-.903a.25.25 0 0 0-.161-.069.308.308 0 0 0-.185.07l-5.136 5.135c-.07.07-.07.139-.07.162 0 .046 0 .116.07.162l.88.879a.252.252 0 0 0 .346 0l5.136-5.09c.07-.069.07-.138.07-.161 0-.047 0-.14-.07-.185zm1.897 12.816.879.879a.252.252 0 0 0 .347 0l5.136-5.113c.069-.07.069-.139.069-.162 0-.023 0-.115-.07-.162l-.878-.879c-.07-.07-.14-.07-.162-.07-.047 0-.116 0-.162.07l-5.136 5.136c-.116.046-.116.208-.023.3zM7.839 25.288c.254.255.578.393.948.37.347 0 .671-.162.926-.416l7.194-7.912-1.133-1.133-7.912 7.217a1.241 1.241 0 0 0-.416.926c0 .37.138.717.393.948z" fill="#80898F" fill-rule="nonzero" stroke="#80898F" stroke-width=".5"/>
</svg>
