<svg width="32" height="32" xmlns="http://www.w3.org/2000/svg">
    <g transform="translate(1.541 4.85)" stroke="#8D969C" stroke-width="2" fill="none" fill-rule="evenodd" stroke-linecap="round">
        <path d="M15.632 21.86s11.198-3.705 6.57-13.766c0 0-2.717-6.484-10.927-7.508C3.065-.438 1.05 4.812 1.05 4.812s-3.672 7.288 2.716 8.035c.917.108 2.83-.317 3.622.753.792 1.07.164 2.376 0 4.98-.09 1.448 1.001 4.944 8.244 3.28z"/>
        <circle cx="6.086" cy="6.629" r="2.031"/>
        <circle cx="17.867" cy="8.898" r="1.375"/>
        <circle cx="17.867" cy="15.133" r="1.375"/>
        <circle cx="12.276" cy="18.155" r="1.375"/>
        <path d="M26.909.184c-.39 1.873-1.171 6.168-1.234 15.277 0 .129.104.232.232.232h2.779a.232.232 0 0 0 .232-.237C28.86 13.86 28.498 5.203 27.36.178a.232.232 0 0 0-.452.006zM28.878 17.827c0 .865-1.086 4.17-1.573 4.17-.487 0-1.573-3.305-1.573-4.17a1.573 1.573 0 1 1 3.146 0z"/>
    </g>
</svg>
