<svg width="32" height="32" xmlns="http://www.w3.org/2000/svg">
    <g id="donumenta" fill="none" fill-rule="evenodd">
        <path fill="#AAB1B6" d="M5.729 4.25h5.735v23.439H5.729z"/>
        <path d="M11.463 27.69V4.25h-4.61c-.129.881-.274 1.601-.435 2.16-.161.559-.381.994-.66 1.305-.28.312-.64.527-1.08.645-.441.118-.994.177-1.66.177H.857v3.9h4.835V27.69h5.77z" fill="#AAB1B6" fill-rule="nonzero"/>
        <path d="M9.167 12.298v-7.92L6.853 4.25c-.129.881-.274 1.601-.435 2.16-.161.559-.381.994-.66 1.305-.187.208-.208 1.782-.065 4.723h.064l3.41-.14z" fill="#80898F" fill-rule="nonzero"/>
        <path d="M28.918 4.379v14.86h2.224l-.322 4.385h-1.902v4.126H23.89v-4.126h-9.8v-4.305l10.108-14.94h4.721zm-4.72 7.703-4.564 7.158h4.32l.243-7.158z" fill="#AAB1B6" fill-rule="nonzero"/>
        <path fill="#80898F" d="m24.197 4.379 3.551 2.638-3.55 5.062z"/>
        <path fill="#80898F" fill-rule="nonzero" d="M14.09 19.236h5.544l-1.712 2.54-3.832-2.536z"/>
        <path fill="#5D5F63" d="M23.939 19.236h4.973v4.408h-4.973z"/>
    </g>
    <g id="active" fill="none" fill-rule="evenodd">
        <path fill="#AAB1B6" d="M5.729 4.25h5.735v23.439H5.729z"/>
        <path d="M11.463 27.69V4.25h-4.61c-.129.881-.274 1.601-.435 2.16-.161.559-.381.994-.66 1.305-.28.312-.64.527-1.08.645-.441.118-.994.177-1.66.177H.857v3.9h4.835V27.69h5.77z" fill="#3CB1E6" fill-rule="nonzero"/>
        <path d="M9.167 12.298v-7.92L6.853 4.25c-.129.881-.274 1.601-.435 2.16-.161.559-.381.994-.66 1.305-.187.208-.208 1.782-.065 4.723h.064l3.41-.14z" fill="#0089C8" fill-rule="nonzero"/>
        <path d="M28.918 4.379v14.86h2.224l-.322 4.385h-1.902v4.126H23.89v-4.126h-9.8v-4.305l10.108-14.94h4.721zm-4.72 7.703-4.564 7.158h4.32l.243-7.158z" fill="#3CB1E6" fill-rule="nonzero"/>
        <path fill="#0089C8" d="m24.197 4.379 3.551 2.638-3.55 5.062z"/>
        <path fill="#0089C8" fill-rule="nonzero" d="M14.09 19.236h5.544l-1.712 2.54-3.832-2.536z"/>
        <path fill="#0089C8" d="M23.939 19.236h4.973v4.408h-4.973z"/>
    </g>
</svg>
