<svg width="32" height="32" xmlns="http://www.w3.org/2000/svg">
    <g id="news" fill="none" fill-rule="evenodd">
        <path d="M8.04 10.31H5.757v14.798c0 .625.51 1.135 1.135 1.135s1.148-.51 1.148-1.135V10.31zm0 .866v-3.98c0-.319.256-.574.562-.574h18.202c.319 0 .574.255.574.574v17.912c0 1.25-1.02 2.27-2.27 2.27H6.892c-1.25 0-2.27-1.02-2.27-2.27V11.737c0-.306.255-.561.574-.561H8.04zm.83 15.067h16.238c.625 0 1.135-.493 1.135-1.097V5.486H9.176v19.66c0 .394-.115.764-.306 1.097z" stroke="#80898F" fill="#80898F" fill-rule="nonzero"/>
        <rect stroke="#868F95" stroke-width="2" stroke-linecap="square" x="12.083" y="10.019" width="5.289" height="5.745" rx="1"/>
        <path stroke="#868F95" stroke-width="2" stroke-linecap="round" d="M19.739 11.14h3.377M19.769 14.196l3.347.108M12.083 19.304h11.033M12.083 22.107h11.033"/>
    </g>
</svg>
