<svg width="32" height="33" xmlns="http://www.w3.org/2000/svg">
    <path d="M16 25.382a9.687 9.687 0 0 0 9.687-9.688c0-5.348-4.337-9.687-9.687-9.687s-9.688 4.34-9.688 9.687A9.687 9.687 0 0 0 16 25.382zm0-1.875a7.808 7.808 0 0 1-7.813-7.813A7.81 7.81 0 0 1 16 7.882a7.81 7.81 0 0 1 7.812 7.812A7.808 7.808 0 0 1 16 23.507zm0-9.922a1.64 1.64 0 1 0 0-3.281 1.64 1.64 0 0 0 0 3.281zm1.719 7.11c.259 0 .468-.21.468-.47v-.937a.469.469 0 0 0-.468-.469h-.469v-3.906a.469.469 0 0 0-.469-.469h-2.5a.469.469 0 0 0-.469.47v.937c0 .259.21.468.47.468h.468v2.5h-.469a.469.469 0 0 0-.469.47v.937c0 .259.21.468.47.468h3.437z" fill="#0093D7" fill-rule="nonzero"/>
</svg>
