<?xml version="1.0" encoding="UTF-8" standalone="no"?>
<svg
   xmlns:dc="http://purl.org/dc/elements/1.1/"
   xmlns:cc="http://creativecommons.org/ns#"
   xmlns:rdf="http://www.w3.org/1999/02/22-rdf-syntax-ns#"
   xmlns:svg="http://www.w3.org/2000/svg"
   xmlns="http://www.w3.org/2000/svg"
   xmlns:sodipodi="http://sodipodi.sourceforge.net/DTD/sodipodi-0.dtd"
   xmlns:inkscape="http://www.inkscape.org/namespaces/inkscape"
   width="28.935034"
   height="49.107285"
   version="1.1"
   id="svg14"
   sodipodi:docname="marker-self.svg"
   inkscape:version="0.92.5 (2060ec1f9f, 2020-04-08)">
  <metadata
     id="metadata20">
    <rdf:RDF>
      <cc:Work
         rdf:about="">
        <dc:format>image/svg+xml</dc:format>
        <dc:type
           rdf:resource="http://purl.org/dc/dcmitype/StillImage" />
        <dc:title></dc:title>
      </cc:Work>
    </rdf:RDF>
  </metadata>
  <defs
     id="defs18" />
  <sodipodi:namedview
     pagecolor="#ffffff"
     bordercolor="#666666"
     borderopacity="1"
     objecttolerance="10"
     gridtolerance="10"
     guidetolerance="10"
     inkscape:pageopacity="0"
     inkscape:pageshadow="2"
     inkscape:window-width="1443"
     inkscape:window-height="788"
     id="namedview16"
     showgrid="false"
     fit-margin-top="0"
     fit-margin-left="0"
     fit-margin-right="0"
     fit-margin-bottom="0"
     inkscape:zoom="3.1324663"
     inkscape:cx="-19.096914"
     inkscape:cy="9.3018007"
     inkscape:window-x="0"
     inkscape:window-y="0"
     inkscape:window-maximized="0"
     inkscape:current-layer="svg14" />
  <g
     id="g12"
     style="fill:none;fill-rule:evenodd"
     transform="translate(-12.622,2.135485)">
    <path
       d="m 33.822,15.553 a 12.916,12.916 0 0 1 5.735,10.765 v 4.157 H 35.07 V 27.08 A 0.709,0.709 0 0 0 34.916,26.637 L 26.984,42.5 19.008,26.55 a 0.707,0.707 0 0 0 -0.236,0.53 v 3.395 h -4.15 v -4.157 c 0,-4.448 2.238,-8.38 5.61,-10.68 1.743,1.752 4.126,2.836 6.751,2.836 2.669,0 5.089,-1.118 6.84,-2.921 z M 27.284,4.591 a 9.513,9.513 0 0 0 5.647,1.875 9.43,9.43 0 0 0 2.05,-0.226 c 0.199,0.732 0.307,1.501 0.307,2.298 0,4.707 -3.725,8.537 -8.305,8.537 -4.579,0 -8.304,-3.83 -8.304,-8.538 0,-0.359 0.024,-0.712 0.066,-1.059 a 9.404,9.404 0 0 0 1.612,0.143 c 2.67,0 5.149,-1.152 6.927,-3.03 z M 26.984,0 c 0.452,0 0.897,0.039 1.33,0.11 -1.036,3.576 -4.286,6.111 -7.958,6.111 -0.446,0 -0.892,-0.04 -1.332,-0.114 C 20.044,2.58 23.225,0 26.984,0 Z m 2.654,0.45 c 2.147,0.746 3.903,2.371 4.86,4.458 A 8.057,8.057 0 0 1 32.93,5.066 8.174,8.174 0 0 1 28.166,3.518 9.95,9.95 0 0 0 29.638,0.45 Z"
       id="path2"
       inkscape:connector-curvature="0"
       style="fill:#737984;fill-rule:nonzero;stroke:#ffffff;stroke-width:4" />
    <path
       d="m 20.356,6.221 c 3.672,0 6.922,-2.535 7.958,-6.11 A 8.113,8.113 0 0 0 26.984,0 c -3.759,0 -6.94,2.58 -7.96,6.107 0.44,0.073 0.886,0.114 1.332,0.114 z M 34.498,4.908 C 33.541,2.821 31.785,1.196 29.638,0.45 a 9.95,9.95 0 0 1 -1.472,3.068 8.174,8.174 0 0 0 4.764,1.548 c 0.528,0 1.052,-0.056 1.568,-0.158 z"
       id="path4"
       inkscape:connector-curvature="0"
       style="fill:#67b631;fill-rule:nonzero" />
    <path
       d="m 33.822,15.553 c -1.75,1.803 -4.17,2.92 -6.839,2.92 -2.625,0 -5.008,-1.083 -6.752,-2.836 a 12.921,12.921 0 0 0 -5.609,10.681 v 4.157 h 4.15 V 27.08 c 0,-0.386 0.304,-0.7 0.68,-0.7 a 0.69,0.69 0 0 1 0.68,0.7 l 2.151,3.396 h 8.088 L 33.71,27.08 c 0,-0.386 0.305,-0.7 0.68,-0.7 0.376,0 0.681,0.314 0.681,0.7 v 3.396 h 4.486 v -4.157 c 0,-4.503 -2.293,-8.478 -5.735,-10.765 z"
       id="path6"
       inkscape:connector-curvature="0"
       style="fill:#57a026;fill-rule:nonzero" />
    <path
       d="m 26.983,17.075 c 4.58,0 8.305,-3.83 8.305,-8.537 A 8.72,8.72 0 0 0 34.98,6.24 9.43,9.43 0 0 1 32.93,6.466 9.513,9.513 0 0 1 27.284,4.591 c -1.778,1.878 -4.258,3.03 -6.927,3.03 -0.54,0 -1.08,-0.05 -1.612,-0.143 a 8.79,8.79 0 0 0 -0.066,1.06 c 0,4.707 3.725,8.537 8.304,8.537 z"
       id="path8"
       inkscape:connector-curvature="0"
       style="fill:#e4e9ee;fill-rule:nonzero" />
    <path
       d="M 17.24,23.014 26.985,42.5 36.728,23.014 Z"
       id="path10"
       inkscape:connector-curvature="0"
       style="fill:#57a026;fill-rule:nonzero" />
  </g>
</svg>
