<svg width="33" height="32" viewBox="0 0 33 32" xmlns="http://www.w3.org/2000/svg">
    <g transform="translate(.575)" fill="none" fill-rule="evenodd">
        <path d="M15.75 16.25a5.626 5.626 0 0 0 5.625-5.625A5.626 5.626 0 0 0 15.75 5a5.626 5.626 0 0 0-5.625 5.625 5.626 5.626 0 0 0 5.625 5.625zm0-1.875a3.756 3.756 0 0 1-3.75-3.75 3.756 3.756 0 0 1 3.75-3.75 3.756 3.756 0 0 1 3.75 3.75 3.756 3.756 0 0 1-3.75 3.75zM22.625 25c1.035 0 1.875-.84 1.875-1.875v-1a5.251 5.251 0 0 0-5.25-5.25c-1.121 0-1.66.625-3.5.625s-2.375-.625-3.5-.625A5.251 5.251 0 0 0 7 22.125v1C7 24.16 7.84 25 8.875 25h13.75zm0-1.875H8.875v-1a3.38 3.38 0 0 1 3.375-3.375c.57 0 1.496.625 3.5.625 2.02 0 2.926-.625 3.5-.625a3.38 3.38 0 0 1 3.375 3.375v1z" fill="#80898F" fill-rule="nonzero"/>
        <circle stroke="#80898F" stroke-width="1.5" stroke-linecap="square" cx="16" cy="16" r="15"/>
    </g>
</svg>
