<svg width="33" height="33" viewBox="0 0 33 33" xmlns="http://www.w3.org/2000/svg">
    <path d="M15.074 22.872v-.005c0-.186-.045-.482-.1-.66-.262-.835-1.07-3.035-2.915-5.14-.818-.933-1.481-2.697-1.481-3.938v-.007c-.01-3.451 2.796-6 5.997-6h.004a5.998 5.998 0 0 1 5.996 5.996c0 1.244-.665 3.013-1.484 3.949a14.835 14.835 0 0 0-2.91 5.13c-.053.182-.1.483-.106.672v.003h2.25c.454-1.564 1.677-3.43 2.457-4.32 1.128-1.287 2.043-3.721 2.043-5.433a8.25 8.25 0 0 0-8.247-8.247h-.003c-4.794 0-8.25 3.891-8.25 8.25v.012c0 1.707.915 4.133 2.042 5.416.78.89 2.004 2.756 2.457 4.32v.002h2.25zM7.174 9.57c.622 0 1.126-.504 1.126-1.125 0-.366-.26-.807-.58-.984l-2.598-1.5a1.326 1.326 0 0 0-.58-.161c-.622 0-1.126.504-1.126 1.125 0 .366.26.807.58.984l2.598 1.5c.148.089.408.161.58.161zm18.822-.01c.166 0 .417-.068.56-.151l2.598-1.5c.301-.181.545-.613.545-.964 0-.62-.504-1.125-1.125-1.125-.16 0-.404.063-.545.14l-2.597 1.5c-.31.18-.563.617-.563.975 0 .62.504 1.125 1.125 1.125h.002zm-13.171 4.312a.75.75 0 0 0 .75-.75 3.006 3.006 0 0 1 3-3 .75.75 0 0 0 0-1.5 4.509 4.509 0 0 0-4.5 4.5c0 .414.336.75.75.75zM5.7 14.997a1.125 1.125 0 0 0 0-2.25h-3a1.125 1.125 0 0 0 0 2.25h3zm24.75 0a1.125 1.125 0 0 0 0-2.25h-3a1.125 1.125 0 0 0 0 2.25h3zm-1.877 6.928c.621 0 1.125-.504 1.125-1.125 0-.35-.244-.783-.545-.964l-2.597-1.5a1.326 1.326 0 0 0-.58-.16c-.622 0-1.126.503-1.126 1.124 0 .366.26.807.58.984l2.598 1.5c.14.078.385.141.545.141zm-24.032.02c.173 0 .433-.072.58-.161l2.598-1.5c.301-.181.545-.613.545-.964 0-.62-.504-1.125-1.125-1.125-.16 0-.404.063-.545.14l-2.597 1.5c-.32.178-.58.62-.58.985 0 .621.503 1.125 1.124 1.125zm13.882 6.927c.222 0 .502-.15.625-.334l1.148-1.728a.892.892 0 0 0 .126-.414l.003-2.024h-7.5l.003 2.025c0 .125.057.31.126.414l1.148 1.727a.838.838 0 0 0 .624.334h3.697z" fill="#80898F" fill-rule="nonzero"/>
</svg>
