<svg width="32" height="32" xmlns="http://www.w3.org/2000/svg">
    <path d="M16 24.754c.559 0 1.078-.219 1.469-.617l6.851-6.98c2.09-2.137 2.528-6.169-.414-8.645-2.258-1.899-5.746-1.614-7.906.586-2.16-2.2-5.648-2.489-7.906-.586-2.938 2.472-2.508 6.504-.414 8.64l6.851 6.98c.39.4.914.622 1.469.622zm-.133-1.938-6.851-6.98C7.59 14.383 7.3 11.633 9.3 9.949c1.52-1.277 3.863-1.086 5.332.41L16 11.754l1.367-1.395c1.477-1.504 3.82-1.687 5.332-.414 1.996 1.684 1.7 4.45.285 5.89l-6.851 6.981c-.094.094-.172.094-.266 0z" fill="#80898F" fill-rule="nonzero"/>
</svg>
