<svg width="33" height="33" xmlns="http://www.w3.org/2000/svg">
    <path d="M19.91 10.086c0-.037.19-.16.803-.16h2a1.176 1.176 0 0 0 1.193-1.181h0V5.254A1.181 1.181 0 0 0 22.74 4.05h-2.98a6.104 6.104 0 0 0-4.486 1.746 6.386 6.386 0 0 0-1.698 4.598v3.166h-2.315a1.187 1.187 0 0 0-1.192 1.181v3.763c0 .65.527 1.176 1.176 1.176h2.278v8.169c-.009.65.51 1.186 1.16 1.197h3.912a1.176 1.176 0 0 0 1.176-1.181h0v-8.158h2.783a1.187 1.187 0 0 0 1.182-1.182v-3.768a1.176 1.176 0 0 0-1.182-1.176h-2.767V10.81c-.03-.248.013-.5.122-.724z" stroke="#7C7E82" stroke-width="2" fill="none" fill-rule="evenodd" stroke-linecap="round"/>
</svg>
