<?xml version="1.0" encoding="UTF-8" standalone="no"?>
<!-- Created with Inkscape (http://www.inkscape.org/) -->

<svg
   width="21.15873mm"
   height="12.099396mm"
   viewBox="0 0 21.15873 12.099396"
   version="1.1"
   id="svg319"
   inkscape:version="1.1 (ce6663b3b7, 2021-05-25)"
   sodipodi:docname="bundesverband-soziokultur.svg"
   xmlns:inkscape="http://www.inkscape.org/namespaces/inkscape"
   xmlns:sodipodi="http://sodipodi.sourceforge.net/DTD/sodipodi-0.dtd"
   xmlns="http://www.w3.org/2000/svg"
   xmlns:svg="http://www.w3.org/2000/svg">
  <sodipodi:namedview
     id="namedview321"
     pagecolor="#ffffff"
     bordercolor="#666666"
     borderopacity="1.0"
     inkscape:pageshadow="2"
     inkscape:pageopacity="0.0"
     inkscape:pagecheckerboard="0"
     inkscape:document-units="mm"
     showgrid="false"
     fit-margin-top="0"
     fit-margin-left="0"
     fit-margin-right="0"
     fit-margin-bottom="0"
     inkscape:zoom="2.9861392"
     inkscape:cx="85.227106"
     inkscape:cy="57.097138"
     inkscape:window-width="1920"
     inkscape:window-height="1016"
     inkscape:window-x="0"
     inkscape:window-y="27"
     inkscape:window-maximized="1"
     inkscape:current-layer="layer1" />
  <defs
     id="defs316" />
  <g
     inkscape:label="Layer 1"
     inkscape:groupmode="layer"
     id="layer1"
     transform="translate(5.6175504,-74.048154)">
    <g
       id="Ebene_2-3"
       data-name="Ebene 2"
       transform="matrix(0.26458333,0,0,0.26458333,-62.794008,70.801717)">
      <g
         id="Ebene_1-2-3"
         data-name="Ebene 1-2">
        <path
           d="m 265.33,49.82 c -0.32,-0.18 -0.53,-0.21 -1.56,-0.21 h -0.44 v 2.28 h 0.56 c 1.46,0 1.95,-0.28 1.95,-1.15 a 1,1 0 0 0 -0.51,-0.92 z"
           style="fill:#005780"
           id="path198" />
        <path
           d="m 268.71,27.65 c 0,-0.75 -0.39,-1 -1.66,-1 h -0.55 v 1.94 h 0.65 c 1.15,0.03 1.56,-0.21 1.56,-0.94 z"
           style="fill:#005780"
           id="path200" />
        <path
           d="m 264.47,38 c -1.24,0 -2,1 -2,2.8 0,1.8 0.74,2.78 2,2.78 1.26,0 2,-1 2,-2.78 0,-1.78 -0.77,-2.8 -2,-2.8 z"
           style="fill:#005780"
           id="path202" />
        <path
           d="m 261.2,26.94 c -0.32,-0.18 -0.54,-0.2 -1.56,-0.2 H 259.2 V 29 h 0.55 c 1.47,0 1.95,-0.29 1.95,-1.16 a 1,1 0 0 0 -0.5,-0.9 z"
           style="fill:#005780"
           id="path204" />
        <path
           d="m 255.65,16.33 c 0,-0.75 -0.39,-1 -1.66,-1 h -0.55 v 1.95 h 0.65 c 1.15,0.03 1.56,-0.21 1.56,-0.95 z"
           style="fill:#005780"
           id="path206" />
        <path
           d="m 267.21,29.82 h -0.71 v 2.28 h 0.67 c 1.53,0 1.9,-0.23 1.9,-1.13 0,-0.9 -0.44,-1.15 -1.86,-1.15 z"
           style="fill:#005780"
           id="path208" />
        <path
           d="m 245.79,43.61 c 1.23,0 2,-1 2,-2.78 0,-1.78 -0.74,-2.8 -2,-2.8 -1.26,0 -2,1 -2,2.8 0,1.8 0.76,2.78 2,2.78 z"
           style="fill:#005780"
           id="path210" />
        <path
           d="m 256,19.66 c 0,-0.88 -0.44,-1.16 -1.87,-1.16 h -0.7 v 2.28 h 0.68 c 1.52,0 1.89,-0.22 1.89,-1.12 z"
           style="fill:#005780"
           id="path212" />
        <path
           d="M 240.53,12.27 V 23.7 h -8.16 v 11.43 h -8.09 V 46.57 H 216.1 V 58 h 53.56 V 35.13 h 26.41 V 12.27 Z m 51.27,6.8 -1,-0.4 a 3.88,3.88 0 0 1 -1.77,-1.12 2.06,2.06 0 0 1 -0.4,-1.26 2.4,2.4 0 0 1 2.68,-2.3 2.62,2.62 0 0 1 2.48,1.36 2.44,2.44 0 0 1 0.23,1.1 h -1.42 a 1.17,1.17 0 0 0 -1.19,-1.16 h -0.09 c -0.64,0 -1.14,0.37 -1.14,0.85 0,0.48 0.22,0.56 0.93,0.85 l 0.75,0.3 c 0.47,0.19 0.76,0.3 0.88,0.36 a 3.32,3.32 0 0 1 0.67,0.36 2,2 0 0 1 0.51,0.49 2,2 0 0 1 0.36,1.24 c 0,1.47 -1.08,2.42 -2.81,2.42 -1.93,0 -3,-1 -3.07,-2.84 h 1.47 a 1.47,1.47 0 0 0 1.61,1.53 c 0.75,0 1.26,-0.35 1.26,-0.84 0,-0.49 -0.28,-0.66 -0.94,-0.94 z m -24.94,-4.94 h 1.6 l 3.2,5.56 v -5.56 h 1.43 V 22 h -1.51 L 268.3,16.46 V 22 h -1.44 z m -8.05,0 h 1.52 v 4.54 c 0,1 0,1.25 0.27,1.58 a 1.49,1.49 0 0 0 1.33,0.62 1.4,1.4 0 0 0 1.57,-1.34 7.94,7.94 0 0 0 0,-0.85 v -4.55 h 1.51 v 4.54 a 3.9,3.9 0 0 1 -0.31,2 3.43,3.43 0 0 1 -5.62,0 3.9,3.9 0 0 1 -0.31,-2 z m -1.25,22.75 h 1.51 v 7.88 h -1.51 z M 252,14.13 h 2.11 a 5.57,5.57 0 0 1 1.83,0.2 1.82,1.82 0 0 1 1.23,1.79 1.57,1.57 0 0 1 -1.29,1.66 1.89,1.89 0 0 1 1.71,2 2.13,2.13 0 0 1 -1.45,2.07 7,7 0 0 1 -2.27,0.2 H 252 Z m -1,11.32 h 4.95 v 1.3 h -3.45 v 1.87 h 3.13 v 1.28 h -3.13 v 2.15 h 3.57 v 1.29 H 251 Z m -0.49,18.14 3.59,-5.42 h -3.25 v -1.29 h 5.07 V 38 l -3.63,5.53 h 3.52 v 1.28 h -5.29 z m -6.3,-18.14 1.9,6.15 1.89,-6.15 h 1.6 l -2.73,7.87 h -1.58 l -2.7,-7.87 z m -5.76,16.37 -1,-0.4 a 3.88,3.88 0 0 1 -1.77,-1.12 2.06,2.06 0 0 1 -0.4,-1.26 2.4,2.4 0 0 1 2.68,-2.3 2.61,2.61 0 0 1 2.48,1.36 2.45,2.45 0 0 1 0.24,1.1 h -1.46 A 1.17,1.17 0 0 0 238.05,38 H 238 c -0.65,0 -1.14,0.37 -1.14,0.85 0,0.48 0.22,0.55 0.93,0.85 l 0.75,0.3 c 0.47,0.18 0.76,0.3 0.88,0.36 a 2.64,2.64 0 0 1 0.66,0.36 1.94,1.94 0 0 1 0.54,0.49 2.11,2.11 0 0 1 0.35,1.24 c 0,1.48 -1.08,2.42 -2.81,2.42 -1.94,0 -3,-1 -3.07,-2.83 h 1.45 a 1.47,1.47 0 0 0 1.61,1.52 c 0.75,0 1.26,-0.34 1.26,-0.84 0,-0.5 -0.31,-0.62 -0.97,-0.9 z m -9.5,14.37 h -1.51 v -7.87 h 1.51 z m 2.92,0 L 229,52 l 2.88,-3.69 h 1.74 l -2.97,3.69 3.13,4.23 z m 9.07,-3.33 a 3.88,3.88 0 0 1 -0.31,2 3.42,3.42 0 0 1 -5.62,0 3.88,3.88 0 0 1 -0.31,-2 v -4.53 h 1.53 v 4.53 c 0,1 0,1.25 0.26,1.58 a 1.52,1.52 0 0 0 1.34,0.62 1.4,1.4 0 0 0 1.57,-1.34 6,6 0 0 0 0,-0.85 v -4.53 h 1.51 z m 4.86,-16.12 c 2.13,0 3.55,1.62 3.55,4.09 0,2.47 -1.41,4.08 -3.55,4.08 -2.14,0 -3.57,-1.62 -3.57,-4.08 0,-2.46 1.41,-4.09 3.56,-4.09 z m 1.93,19.45 h -5 v -7.87 h 1.55 v 6.59 h 3.41 z m 5.07,-6.58 h -2.1 v 6.58 h -1.52 v -6.58 h -2.07 v -1.29 h 5.67 z m 7.2,3.25 a 4,4 0 0 1 -0.3,2 3.43,3.43 0 0 1 -5.63,0 3.9,3.9 0 0 1 -0.3,-2 v -4.53 h 1.52 v 4.53 c 0,1 0,1.25 0.27,1.58 a 1.49,1.49 0 0 0 1.33,0.62 1.4,1.4 0 0 0 1.57,-1.34 6,6 0 0 0 0,-0.85 V 48.34 H 260 Z m -0.8,-22.53 v 3 h -1.5 v -7.88 h 2 a 4.66,4.66 0 0 1 2.47,0.38 2.26,2.26 0 0 1 1.12,2 2.22,2.22 0 0 1 -1.39,2.18 l 1.82,3.27 h -1.76 l -1.63,-3 z m 6.84,25.87 -1.62,-3 h -1.08 v 3 h -1.53 v -7.88 h 2 a 4.79,4.79 0 0 1 2.47,0.37 2.28,2.28 0 0 1 1.12,2.05 2.23,2.23 0 0 1 -1.4,2.18 l 1.82,3.27 z m -1.57,-11.28 c -2.15,0 -3.56,-1.62 -3.56,-4.08 0,-2.46 1.41,-4.09 3.56,-4.09 2.15,0 3.53,1.62 3.53,4.09 0,2.47 -1.43,4.07 -3.57,4.07 z m 4.69,-11.78 a 7.08,7.08 0 0 1 -2.28,0.2 H 265 v -7.89 h 2.12 a 5.61,5.61 0 0 1 1.83,0.2 1.78,1.78 0 0 1 1.22,1.78 1.58,1.58 0 0 1 -1.28,1.67 1.9,1.9 0 0 1 1.71,2 2.13,2.13 0 0 1 -1.47,2.06 z m 7.5,0.2 -0.48,-1.65 h -2.78 l -0.5,1.65 h -1.55 L 274,25.46 h 1.54 l 2.67,7.86 z m 0.6,-11.32 H 275 v -7.89 h 1.92 a 5.17,5.17 0 0 1 2.46,0.42 3.8,3.8 0 0 1 1.86,3.52 3.94,3.94 0 0 1 -1.68,3.46 4.33,4.33 0 0 1 -2.3,0.48 z m 8.63,11.32 h -1.51 l -3.31,-5.55 v 5.53 h -1.44 v -7.87 h 1.6 l 3.2,5.55 v -5.55 h 1.43 z M 287.72,22 h -5.07 v -7.87 h 4.94 v 1.3 h -3.45 v 1.87 h 3.13 v 1.29 h -3.13 v 2.13 h 3.56 z m 5,10.83 a 4.5,4.5 0 0 1 -2.32,0.49 h -2.28 v -7.87 h 1.93 a 5.25,5.25 0 0 1 2.45,0.41 3.79,3.79 0 0 1 1.87,3.52 3.85,3.85 0 0 1 -1.67,3.46 z"
           style="fill:#005780"
           id="path214" />
        <path
           d="m 292,27.13 c -0.47,-0.34 -0.76,-0.38 -2,-0.38 h -0.33 V 32 h 0.69 a 2.47,2.47 0 0 0 1.66,-0.38 2.86,2.86 0 0 0 0.86,-2.29 2.59,2.59 0 0 0 -0.88,-2.2 z"
           style="fill:#005780"
           id="path216" />
        <path
           d="m 278.81,15.81 c -0.47,-0.33 -0.75,-0.38 -2,-0.38 h -0.33 v 5.29 h 0.7 a 2.38,2.38 0 0 0 1.65,-0.38 2.82,2.82 0 0 0 0.86,-2.28 2.63,2.63 0 0 0 -0.88,-2.25 z"
           style="fill:#005780"
           id="path218" />
        <polygon
           points="274.78,27.18 273.77,30.4 275.79,30.4 "
           style="fill:#005780"
           id="polygon220" />
      </g>
    </g>
  </g>
</svg>
