<?xml version="1.0" encoding="UTF-8" standalone="no"?>
<!-- Created with Inkscape (http://www.inkscape.org/) -->

<svg
   width="39.563145mm"
   height="12.239625mm"
   viewBox="0 0 39.563145 12.239625"
   version="1.1"
   id="svg305"
   inkscape:version="1.1 (ce6663b3b7, 2021-05-25)"
   sodipodi:docname="bundesregierung.svg"
   xmlns:inkscape="http://www.inkscape.org/namespaces/inkscape"
   xmlns:sodipodi="http://sodipodi.sourceforge.net/DTD/sodipodi-0.dtd"
   xmlns="http://www.w3.org/2000/svg"
   xmlns:svg="http://www.w3.org/2000/svg">
  <sodipodi:namedview
     id="namedview307"
     pagecolor="#ffffff"
     bordercolor="#666666"
     borderopacity="1.0"
     inkscape:pageshadow="2"
     inkscape:pageopacity="0.0"
     inkscape:pagecheckerboard="0"
     inkscape:document-units="mm"
     showgrid="false"
     fit-margin-top="0"
     fit-margin-left="0"
     fit-margin-right="0"
     fit-margin-bottom="0"
     inkscape:zoom="2.9861392"
     inkscape:cx="28.297409"
     inkscape:cy="25.618364"
     inkscape:window-width="1920"
     inkscape:window-height="1016"
     inkscape:window-x="0"
     inkscape:window-y="27"
     inkscape:window-maximized="1"
     inkscape:current-layer="layer1" />
  <defs
     id="defs302" />
  <g
     inkscape:label="Layer 1"
     inkscape:groupmode="layer"
     id="layer1"
     transform="translate(-142.18621,-142.7346)">
    <g
       id="Name"
       transform="matrix(0.26458333,0,0,0.26458333,134.68527,139.62839)">
      <path
         d="m 59,18.49 v -6.24 h 1.17 a 4.8,4.8 0 0 1 1.33,0.16 2.21,2.21 0 0 1 0.94,0.52 2.1,2.1 0 0 1 0.56,0.91 4.6,4.6 0 0 1 0.18,1.37 4.57,4.57 0 0 1 -0.18,1.48 2.65,2.65 0 0 1 -0.61,1 2.43,2.43 0 0 1 -1,0.59 4.27,4.27 0 0 1 -1.29,0.19 z m 0.79,-5.62 v 5 h 0.29 a 3,3 0 0 0 1,-0.14 1.72,1.72 0 0 0 0.71,-0.46 2,2 0 0 0 0.44,-0.81 4.28,4.28 0 0 0 0.15,-1.22 3.48,3.48 0 0 0 -0.15,-1.1 1.92,1.92 0 0 0 -0.42,-0.73 1.58,1.58 0 0 0 -0.68,-0.39 3.21,3.21 0 0 0 -0.92,-0.12 z m 5.1,5.62 h -0.73 v -4.34 h 0.73 z M 64.53,13.1 a 0.46,0.46 0 0 1 -0.36,-0.15 0.52,0.52 0 0 1 -0.13,-0.38 0.52,0.52 0 0 1 0.13,-0.37 0.53,0.53 0 0 1 0.72,0 0.52,0.52 0 0 1 0.13,0.37 0.52,0.52 0 0 1 -0.13,0.38 0.46,0.46 0 0 1 -0.34,0.15 z m 4.27,2.51 a 3.62,3.62 0 0 1 0,0.49 c 0,0.13 0,0.25 0,0.35 h -2.25 a 2,2 0 0 0 0.33,1.13 1,1 0 0 0 0.85,0.37 1.21,1.21 0 0 0 0.34,-0.05 1.69,1.69 0 0 0 0.27,-0.11 0.91,0.91 0 0 0 0.19,-0.13 l 0.11,-0.09 0.27,0.51 -0.13,0.13 a 1,1 0 0 1 -0.25,0.17 1.5,1.5 0 0 1 -0.38,0.15 1.7,1.7 0 0 1 -0.53,0.07 2,2 0 0 1 -0.74,-0.14 1.36,1.36 0 0 1 -0.56,-0.42 2.21,2.21 0 0 1 -0.36,-0.72 4.13,4.13 0 0 1 -0.12,-1.06 3.32,3.32 0 0 1 0.13,-1 1.88,1.88 0 0 1 0.36,-0.69 1.43,1.43 0 0 1 0.52,-0.4 1.53,1.53 0 0 1 0.64,-0.13 1.26,1.26 0 0 1 1,0.39 1.75,1.75 0 0 1 0.33,1.18 z m -1.37,-1 a 0.73,0.73 0 0 0 -0.63,0.32 1.91,1.91 0 0 0 -0.27,0.94 h 1.58 a 1.23,1.23 0 0 0 0,-0.13 v -0.18 a 1.2,1.2 0 0 0 -0.18,-0.71 0.61,0.61 0 0 0 -0.48,-0.21 z m 7.69,-0.8 a 1.91,1.91 0 0 1 -0.08,0.57 1.4,1.4 0 0 1 -0.22,0.42 1.15,1.15 0 0 1 -0.33,0.29 1.8,1.8 0 0 1 -0.38,0.16 v 0 a 1.35,1.35 0 0 1 0.46,0.17 1.56,1.56 0 0 1 0.37,0.31 1.63,1.63 0 0 1 0.25,0.45 1.7,1.7 0 0 1 0.09,0.57 1.91,1.91 0 0 1 -0.12,0.68 1.46,1.46 0 0 1 -0.4,0.53 1.77,1.77 0 0 1 -0.67,0.35 3.08,3.08 0 0 1 -1,0.13 h -1.22 v -6.19 h 1.2 a 3.76,3.76 0 0 1 1,0.11 1.83,1.83 0 0 1 0.64,0.32 1.28,1.28 0 0 1 0.37,0.5 2,2 0 0 1 0.06,0.66 z m -0.79,0 a 1,1 0 0 0 -0.31,-0.72 1.46,1.46 0 0 0 -1,-0.28 H 72.61 V 15 h 0.4 a 1.38,1.38 0 0 0 1,-0.3 1.11,1.11 0 0 0 0.34,-0.83 z m 0.11,2.87 a 1,1 0 0 0 -0.33,-0.8 1.39,1.39 0 0 0 -0.94,-0.29 h -0.53 v 2.19 h 0.48 a 1.52,1.52 0 0 0 1,-0.28 1,1 0 0 0 0.34,-0.76 z m 4.6,-1.13 c 0,0.19 0,0.35 0,0.49 0,0.14 0,0.25 0,0.35 h -2.25 a 1.85,1.85 0 0 0 0.33,1.13 1,1 0 0 0 0.88,0.48 1.29,1.29 0 0 0 0.35,-0.05 1.27,1.27 0 0 0 0.26,-0.11 0.7,0.7 0 0 0 0.19,-0.13 l 0.12,-0.09 0.27,0.51 -0.14,0.13 a 0.92,0.92 0 0 1 -0.24,0.17 1.5,1.5 0 0 1 -0.38,0.15 1.73,1.73 0 0 1 -0.54,0.07 1.9,1.9 0 0 1 -0.73,-0.14 1.36,1.36 0 0 1 -0.56,-0.42 1.87,1.87 0 0 1 -0.36,-0.72 4.09,4.09 0 0 1 -0.13,-1.06 3.68,3.68 0 0 1 0.13,-1 2,2 0 0 1 0.36,-0.69 1.46,1.46 0 0 1 0.53,-0.4 1.5,1.5 0 0 1 0.64,-0.13 1.24,1.24 0 0 1 1,0.39 1.7,1.7 0 0 1 0.29,1.13 z m -1.38,-1 a 0.72,0.72 0 0 0 -0.62,0.32 1.72,1.72 0 0 0 -0.27,0.94 h 1.58 a 0.45,0.45 0 0 0 0,-0.13 1.09,1.09 0 0 0 0,-0.18 1.2,1.2 0 0 0 -0.18,-0.71 0.63,0.63 0 0 0 -0.49,-0.15 z m 2.1,2.74 a 1.22,1.22 0 0 1 0.15,-0.63 1.15,1.15 0 0 1 0.38,-0.41 1.76,1.76 0 0 1 0.58,-0.23 3.88,3.88 0 0 1 0.7,-0.06 h 0.22 v -0.42 a 1.12,1.12 0 0 0 -0.19,-0.76 0.71,0.71 0 0 0 -0.55,-0.21 1,1 0 0 0 -0.54,0.14 c -0.14,0.1 -0.26,0.18 -0.34,0.25 l -0.31,-0.49 0.19,-0.16 a 1.14,1.14 0 0 1 0.27,-0.17 1.78,1.78 0 0 1 0.37,-0.14 2.26,2.26 0 0 1 0.47,-0.05 1.28,1.28 0 0 1 1,0.37 1.71,1.71 0 0 1 0.35,1.19 v 2 a 5,5 0 0 0 0,0.55 q 0,0.27 0,0.36 H 81.9 v -0.48 0 a 1,1 0 0 1 -0.11,0.18 0.81,0.81 0 0 1 -0.18,0.19 0.93,0.93 0 0 1 -0.26,0.15 0.8,0.8 0 0 1 -0.36,0.07 1.11,1.11 0 0 1 -0.83,-0.35 1,1 0 0 1 -0.24,-0.38 1.3,1.3 0 0 1 -0.14,-0.42 z m 1.31,0.59 a 0.77,0.77 0 0 0 0.27,0 1,1 0 0 0 0.21,-0.11 0.93,0.93 0 0 0 0.14,-0.14 l 0.1,-0.13 v -1 h -0.23 a 1.66,1.66 0 0 0 -0.8,0.18 0.56,0.56 0 0 0 -0.27,0.52 0.71,0.71 0 0 0 0.16,0.51 0.54,0.54 0 0 0 0.44,0.29 z m 5.59,0.52 H 86 V 18 18 a 0.59,0.59 0 0 1 -0.12,0.16 1.18,1.18 0 0 1 -0.23,0.2 1.27,1.27 0 0 1 -0.33,0.16 A 1.33,1.33 0 0 1 84.87,18.6 1.46,1.46 0 0 1 84.35,18.51 1,1 0 0 1 83.96,18.23 1.26,1.26 0 0 1 83.71,17.74 2.63,2.63 0 0 1 83.62,17 v -2.85 h 0.74 v 2.79 a 1.35,1.35 0 0 0 0.17,0.77 0.64,0.64 0 0 0 0.55,0.24 0.9,0.9 0 0 0 0.53,-0.16 2.25,2.25 0 0 0 0.35,-0.31 v -3.33 h 0.73 z m 2.95,-3.75 H 88.72 V 18.4 H 88 V 14.74 H 87.47 V 14.26 L 88,14.16 v -0.87 a 1.59,1.59 0 0 1 0.1,-0.61 1.07,1.07 0 0 1 0.26,-0.41 1,1 0 0 1 0.38,-0.24 1.39,1.39 0 0 1 0.46,-0.07 1.16,1.16 0 0 1 0.4,0.06 l 0.22,0.1 -0.16,0.61 a 0.5,0.5 0 0 0 -0.15,-0.08 0.62,0.62 0 0 0 -0.25,0 0.47,0.47 0 0 0 -0.39,0.16 1,1 0 0 0 -0.14,0.6 v 0.78 h 1 z m 2.57,0 h -1 v 2.41 a 1.15,1.15 0 0 0 0.12,0.63 0.46,0.46 0 0 0 0.4,0.17 0.78,0.78 0 0 0 0.28,-0.05 l 0.17,-0.08 0.1,0.59 a 1.38,1.38 0 0 1 -0.22,0.11 1.12,1.12 0 0 1 -0.46,0.08 1.08,1.08 0 0 1 -0.84,-0.32 1.55,1.55 0 0 1 -0.28,-1 V 14.74 H 90 v -0.48 l 0.52,-0.11 0.08,-1.21 h 0.65 v 1.21 h 1 z m 2.74,0 h -0.11 -0.25 a 0.77,0.77 0 0 0 -0.54,0.18 1.09,1.09 0 0 0 -0.27,0.4 v 3.19 H 93 v -4.27 h 0.67 v 0.59 0 a 1.15,1.15 0 0 1 0.12,-0.25 1,1 0 0 1 0.18,-0.22 0.93,0.93 0 0 1 0.26,-0.15 1,1 0 0 1 0.36,0 h 0.25 l 0.14,0.05 z m 0.43,2.59 a 1.33,1.33 0 0 1 0.14,-0.63 1.27,1.27 0 0 1 0.39,-0.41 1.76,1.76 0 0 1 0.58,-0.23 3.88,3.88 0 0 1 0.7,-0.06 h 0.22 v -0.42 a 1.12,1.12 0 0 0 -0.19,-0.76 0.71,0.71 0 0 0 -0.55,-0.21 1,1 0 0 0 -0.54,0.14 c -0.14,0.1 -0.26,0.18 -0.34,0.25 l -0.31,-0.49 0.18,-0.16 a 1.48,1.48 0 0 1 0.28,-0.17 1.78,1.78 0 0 1 0.37,-0.14 2.26,2.26 0 0 1 0.47,-0.05 1.29,1.29 0 0 1 1,0.37 1.71,1.71 0 0 1 0.35,1.19 v 2 a 5,5 0 0 0 0,0.55 q 0,0.27 0,0.36 h -0.69 v -0.48 0 a 1,1 0 0 1 -0.11,0.18 0.81,0.81 0 0 1 -0.18,0.19 0.93,0.93 0 0 1 -0.26,0.15 0.8,0.8 0 0 1 -0.36,0.07 1.14,1.14 0 0 1 -0.46,-0.09 1.08,1.08 0 0 1 -0.37,-0.26 1,1 0 0 1 -0.24,-0.38 1.3,1.3 0 0 1 -0.06,-0.37 z m 1.31,0.59 a 0.77,0.77 0 0 0 0.27,0 1,1 0 0 0 0.21,-0.11 0.93,0.93 0 0 0 0.14,-0.14 l 0.1,-0.13 v -1 h -0.23 a 1.66,1.66 0 0 0 -0.8,0.18 0.56,0.56 0 0 0 -0.27,0.52 0.71,0.71 0 0 0 0.16,0.51 0.54,0.54 0 0 0 0.44,0.34 z m 5.66,-3.25 h -0.54 a 1.46,1.46 0 0 1 0.21,0.77 1.52,1.52 0 0 1 -0.12,0.62 1.29,1.29 0 0 1 -0.31,0.47 1.47,1.47 0 0 1 -0.48,0.29 1.66,1.66 0 0 1 -0.59,0.1 h -0.24 a 1.18,1.18 0 0 0 -0.23,0.14 0.37,0.37 0 0 0 -0.11,0.27 0.27,0.27 0 0 0 0.1,0.22 0.52,0.52 0 0 0 0.34,0.08 h 0.55 a 2.47,2.47 0 0 1 0.57,0.07 1.29,1.29 0 0 1 0.46,0.2 0.88,0.88 0 0 1 0.3,0.36 1.17,1.17 0 0 1 0.11,0.52 1.34,1.34 0 0 1 -0.15,0.64 1.44,1.44 0 0 1 -0.42,0.5 2,2 0 0 1 -0.66,0.33 3,3 0 0 1 -0.87,0.11 1.63,1.63 0 0 1 -1.06,-0.3 1.07,1.07 0 0 1 -0.36,-0.87 0.93,0.93 0 0 1 0.09,-0.42 1.1,1.1 0 0 1 0.2,-0.31 1.13,1.13 0 0 1 0.24,-0.21 l 0.19,-0.12 v 0 a 0.72,0.72 0 0 1 -0.28,-0.6 0.66,0.66 0 0 1 0.07,-0.3 0.89,0.89 0 0 1 0.16,-0.21 0.7,0.7 0 0 1 0.17,-0.13 l 0.13,-0.07 v 0 a 1.24,1.24 0 0 1 -0.54,-0.48 1.64,1.64 0 0 1 -0.2,-0.85 1.73,1.73 0 0 1 0.11,-0.63 1.31,1.31 0 0 1 0.32,-0.46 1.29,1.29 0 0 1 0.47,-0.27 1.75,1.75 0 0 1 0.57,-0.09 1.58,1.58 0 0 1 0.58,0.11 h 1.32 z m -2,3.63 a 1.69,1.69 0 0 1 -0.33,0 l -0.16,0.11 a 1.07,1.07 0 0 0 -0.14,0.16 0.68,0.68 0 0 0 -0.1,0.21 0.82,0.82 0 0 0 0,0.28 c 0,0.47 0.25,0.7 0.77,0.7 a 1.52,1.52 0 0 0 1,-0.26 0.76,0.76 0 0 0 0.32,-0.59 0.51,0.51 0 0 0 -0.2,-0.45 1,1 0 0 0 -0.53,-0.13 z m 1,-2.86 a 0.83,0.83 0 0 0 -0.22,-0.66 0.72,0.72 0 0 0 -0.52,-0.2 0.76,0.76 0 0 0 -0.54,0.2 0.84,0.84 0 0 0 -0.23,0.66 0.85,0.85 0 0 0 0.23,0.67 0.72,0.72 0 0 0 0.52,0.2 0.76,0.76 0 0 0 0.54,-0.2 0.84,0.84 0 0 0 0.19,-0.53 z m 3.74,-0.75 h -1 v 2.41 a 1.28,1.28 0 0 0 0.11,0.63 0.47,0.47 0 0 0 0.4,0.17 0.78,0.78 0 0 0 0.28,-0.05 l 0.17,-0.08 0.1,0.59 -0.21,0.11 a 1.19,1.19 0 0 1 -0.46,0.08 1.09,1.09 0 0 1 -0.85,-0.32 1.55,1.55 0 0 1 -0.28,-1 v -2.4 h -0.52 v -0.48 l 0.52,-0.11 0.09,-1.21 h 0.65 v 1.21 h 1 z m 3.55,0.87 c 0,0.19 0,0.35 0,0.49 0,0.14 0,0.25 0,0.35 h -2.22 a 1.85,1.85 0 0 0 0.33,1.13 1,1 0 0 0 0.85,0.37 1.21,1.21 0 0 0 0.34,-0.05 1.69,1.69 0 0 0 0.27,-0.11 l 0.19,-0.13 0.11,-0.09 0.27,0.51 -0.14,0.13 a 0.92,0.92 0 0 1 -0.24,0.17 1.5,1.5 0 0 1 -0.38,0.15 1.7,1.7 0 0 1 -0.53,0.07 2,2 0 0 1 -0.74,-0.14 1.36,1.36 0 0 1 -0.56,-0.42 2.21,2.21 0 0 1 -0.36,-0.72 4.13,4.13 0 0 1 -0.12,-1.06 3.32,3.32 0 0 1 0.13,-1 1.87,1.87 0 0 1 0.35,-0.69 1.46,1.46 0 0 1 0.53,-0.4 1.53,1.53 0 0 1 0.64,-0.13 1.26,1.26 0 0 1 1,0.39 1.75,1.75 0 0 1 0.25,1.32 z m -1.37,-1 a 0.73,0.73 0 0 0 -0.63,0.32 1.72,1.72 0 0 0 -0.27,0.94 h 1.58 a 1.23,1.23 0 0 0 0,-0.13 v -0.18 a 1.2,1.2 0 0 0 -0.18,-0.71 0.62,0.62 0 0 0 -0.53,-0.07 z m 4.06,1.74 a 2.91,2.91 0 0 1 0.18,-1.1 2,2 0 0 1 0.44,-0.72 1.52,1.52 0 0 1 0.61,-0.38 2.07,2.07 0 0 1 0.69,-0.11 1.86,1.86 0 0 1 0.36,0 1.2,1.2 0 0 1 0.26,0.07 v -1.88 l 0.73,-0.08 v 6.48 H 113.9 V 18 18 l -0.1,0.15 a 1.24,1.24 0 0 1 -0.2,0.19 1.49,1.49 0 0 1 -0.31,0.16 1.52,1.52 0 0 1 -0.45,0.07 1.29,1.29 0 0 1 -0.58,-0.13 1.33,1.33 0 0 1 -0.48,-0.38 2,2 0 0 1 -0.33,-0.69 3.72,3.72 0 0 1 -0.18,-0.99 z M 113,18 a 1,1 0 0 0 0.31,-0.05 1.33,1.33 0 0 0 0.24,-0.11 1.14,1.14 0 0 0 0.16,-0.14 l 0.11,-0.13 v -2.73 l -0.23,-0.1 a 1,1 0 0 0 -0.33,-0.05 1.28,1.28 0 0 0 -0.48,0.09 0.86,0.86 0 0 0 -0.38,0.28 1.41,1.41 0 0 0 -0.26,0.52 2.82,2.82 0 0 0 -0.1,0.77 3.16,3.16 0 0 0 0.08,0.76 1.48,1.48 0 0 0 0.21,0.49 0.83,0.83 0 0 0 0.31,0.26 A 0.8,0.8 0 0 0 113,18 Z m 5.45,-2.34 c 0,0.19 0,0.35 0,0.49 0,0.14 0,0.25 0,0.35 h -2.21 a 1.85,1.85 0 0 0 0.33,1.13 1,1 0 0 0 0.84,0.37 1.32,1.32 0 0 0 0.61,-0.16 0.7,0.7 0 0 0 0.19,-0.13 l 0.11,-0.09 0.28,0.51 -0.14,0.13 a 0.92,0.92 0 0 1 -0.24,0.17 1.67,1.67 0 0 1 -0.38,0.15 1.73,1.73 0 0 1 -0.54,0.07 1.9,1.9 0 0 1 -0.73,-0.14 1.46,1.46 0 0 1 -0.57,-0.42 2,2 0 0 1 -0.35,-0.72 3.7,3.7 0 0 1 -0.13,-1.06 3.32,3.32 0 0 1 0.13,-1 2,2 0 0 1 0.36,-0.69 1.43,1.43 0 0 1 0.52,-0.4 1.57,1.57 0 0 1 0.65,-0.13 1.24,1.24 0 0 1 1,0.39 1.7,1.7 0 0 1 0.26,1.13 z m -1.37,-1 a 0.71,0.71 0 0 0 -0.62,0.32 1.72,1.72 0 0 0 -0.27,0.94 h 1.58 c 0,0 0,-0.07 0,-0.13 0,-0.06 0,-0.12 0,-0.18 a 1.13,1.13 0 0 0 -0.19,-0.71 0.61,0.61 0 0 0 -0.51,-0.26 z m 4.26,0.15 h -0.12 -0.24 a 0.77,0.77 0 0 0 -0.54,0.18 1.27,1.27 0 0 0 -0.28,0.4 v 3.19 h -0.73 v -4.43 h 0.67 v 0.59 0 a 1.15,1.15 0 0 1 0.12,-0.25 0.63,0.63 0 0 1 0.18,-0.22 1,1 0 0 1 0.25,-0.15 1,1 0 0 1 0.36,0 h 0.25 l 0.15,0.05 z m 5.86,-0.95 a 1.91,1.91 0 0 1 -0.08,0.57 1.67,1.67 0 0 1 -0.22,0.42 1.5,1.5 0 0 1 -0.33,0.29 1.8,1.8 0 0 1 -0.38,0.16 v 0 a 1.23,1.23 0 0 1 0.45,0.17 1.39,1.39 0 0 1 0.37,0.31 1.66,1.66 0 0 1 0.26,0.45 1.85,1.85 0 0 1 0,1.25 1.33,1.33 0 0 1 -0.39,0.53 1.85,1.85 0 0 1 -0.67,0.35 3.12,3.12 0 0 1 -1,0.13 h -1.27 v -6.24 h 1.2 a 3.62,3.62 0 0 1 0.94,0.11 1.8,1.8 0 0 1 0.65,0.32 1.28,1.28 0 0 1 0.37,0.5 2,2 0 0 1 0.09,0.66 z m -0.8,0 a 1,1 0 0 0 -0.3,-0.72 1.46,1.46 0 0 0 -1,-0.28 h -0.42 V 15 h 0.41 a 1.38,1.38 0 0 0 1,-0.3 1.15,1.15 0 0 0 0.3,-0.83 z m 0.12,2.87 a 1,1 0 0 0 -0.33,-0.8 1.39,1.39 0 0 0 -0.94,-0.29 h -0.54 v 2.19 h 0.49 a 1.54,1.54 0 0 0 1,-0.28 1,1 0 0 0 0.31,-0.81 z m 4.85,1.75 H 130.7 V 18 18 a 0.92,0.92 0 0 1 -0.12,0.16 1.18,1.18 0 0 1 -0.23,0.2 1.2,1.2 0 0 1 -0.34,0.16 1.23,1.23 0 0 1 -0.44,0.08 1.42,1.42 0 0 1 -0.52,-0.09 0.91,0.91 0 0 1 -0.39,-0.28 1.26,1.26 0 0 1 -0.25,-0.49 A 2.63,2.63 0 0 1 128.32,17 V 14.15 H 129 v 2.79 a 1.26,1.26 0 0 0 0.18,0.77 0.64,0.64 0 0 0 0.55,0.24 0.9,0.9 0 0 0 0.53,-0.16 1.77,1.77 0 0 0 0.34,-0.31 v -3.33 h 0.74 z m 3.49,0 v -2.8 a 1.28,1.28 0 0 0 -0.19,-0.79 0.66,0.66 0 0 0 -0.56,-0.24 0.9,0.9 0 0 0 -0.55,0.17 2.09,2.09 0 0 0 -0.34,0.31 v 3.35 h -0.73 v -4.33 h 0.67 v 0.49 0 a 0.5,0.5 0 0 1 0.11,-0.16 1,1 0 0 1 0.24,-0.2 1.79,1.79 0 0 1 0.34,-0.17 1.29,1.29 0 0 1 0.45,-0.07 1.74,1.74 0 0 1 0.53,0.08 0.94,0.94 0 0 1 0.4,0.28 1.5,1.5 0 0 1 0.25,0.49 2.7,2.7 0 0 1 0.09,0.75 v 2.85 z m 1.63,-2.11 a 2.92,2.92 0 0 1 0.17,-1.1 2,2 0 0 1 0.44,-0.72 1.52,1.52 0 0 1 0.61,-0.38 2.07,2.07 0 0 1 0.69,-0.11 1.86,1.86 0 0 1 0.36,0 1.2,1.2 0 0 1 0.26,0.07 v -2.04 l 0.73,-0.08 v 6.48 h -0.67 V 18 18 l -0.1,0.15 a 1.24,1.24 0 0 1 -0.2,0.19 1.49,1.49 0 0 1 -0.31,0.16 1.52,1.52 0 0 1 -0.45,0.07 1.29,1.29 0 0 1 -0.58,-0.13 1.33,1.33 0 0 1 -0.48,-0.38 2,2 0 0 1 -0.33,-0.69 3.76,3.76 0 0 1 -0.15,-0.99 z m 1.7,1.63 a 1,1 0 0 0 0.31,-0.05 1.33,1.33 0 0 0 0.24,-0.11 1.14,1.14 0 0 0 0.16,-0.14 l 0.11,-0.13 v -2.73 l -0.23,-0.1 a 1,1 0 0 0 -0.33,-0.05 1.28,1.28 0 0 0 -0.48,0.09 0.86,0.86 0 0 0 -0.38,0.28 1.41,1.41 0 0 0 -0.26,0.52 2.82,2.82 0 0 0 -0.1,0.77 3.16,3.16 0 0 0 0.08,0.76 1.48,1.48 0 0 0 0.21,0.49 0.83,0.83 0 0 0 0.31,0.26 0.8,0.8 0 0 0 0.36,0.14 z m 5.46,-2.34 c 0,0.19 0,0.35 0,0.49 0,0.14 0,0.25 0,0.35 h -2.21 a 1.85,1.85 0 0 0 0.33,1.13 1,1 0 0 0 0.84,0.37 1.29,1.29 0 0 0 0.35,-0.05 1.27,1.27 0 0 0 0.26,-0.11 0.7,0.7 0 0 0 0.19,-0.13 l 0.11,-0.09 0.28,0.51 -0.14,0.13 a 0.92,0.92 0 0 1 -0.24,0.17 1.67,1.67 0 0 1 -0.38,0.15 1.73,1.73 0 0 1 -0.54,0.07 1.9,1.9 0 0 1 -0.73,-0.14 1.36,1.36 0 0 1 -0.56,-0.42 1.87,1.87 0 0 1 -0.36,-0.72 4.14,4.14 0 0 1 0,-2.06 2,2 0 0 1 0.36,-0.69 1.52,1.52 0 0 1 0.52,-0.4 1.57,1.57 0 0 1 0.65,-0.13 1.24,1.24 0 0 1 1,0.39 1.7,1.7 0 0 1 0.27,1.13 z m -1.38,-1 a 0.71,0.71 0 0 0 -0.62,0.32 1.72,1.72 0 0 0 -0.27,0.94 H 143 c 0,0 0,-0.07 0,-0.13 0,-0.06 0,-0.12 0,-0.18 a 1.2,1.2 0 0 0 -0.18,-0.71 0.63,0.63 0 0 0 -0.55,-0.26 z m 4.22,0.38 a 1.85,1.85 0 0 0 -0.26,-0.22 0.82,0.82 0 0 0 -0.5,-0.14 0.64,0.64 0 0 0 -0.44,0.14 0.42,0.42 0 0 0 -0.15,0.32 0.57,0.57 0 0 0 0.14,0.41 2.2,2.2 0 0 0 0.43,0.34 L 146,16 a 2.51,2.51 0 0 1 0.69,0.56 1.21,1.21 0 0 1 0.26,0.79 1.15,1.15 0 0 1 -0.36,0.86 1.39,1.39 0 0 1 -1,0.36 1.65,1.65 0 0 1 -0.46,-0.06 1.9,1.9 0 0 1 -0.34,-0.12 1.36,1.36 0 0 1 -0.25,-0.16 l -0.17,-0.16 0.36,-0.58 0.13,0.13 a 1.41,1.41 0 0 0 0.18,0.14 l 0.25,0.11 a 1,1 0 0 0 0.31,0.05 0.73,0.73 0 0 0 0.5,-0.15 0.43,0.43 0 0 0 0.17,-0.35 0.77,0.77 0 0 0 0,-0.27 0.82,0.82 0 0 0 -0.12,-0.2 0.85,0.85 0 0 0 -0.2,-0.17 l -0.27,-0.18 -0.27,-0.18 a 2.55,2.55 0 0 1 -0.64,-0.55 1.17,1.17 0 0 1 -0.23,-0.74 1,1 0 0 1 0.1,-0.45 1.1,1.1 0 0 1 0.26,-0.35 1.47,1.47 0 0 1 0.4,-0.24 1.64,1.64 0 0 1 0.5,-0.08 1.75,1.75 0 0 1 0.43,0.05 0.88,0.88 0 0 1 0.31,0.13 1.39,1.39 0 0 1 0.22,0.15 l 0.14,0.13 z m 3.2,-0.23 h -0.11 -0.25 a 0.72,0.72 0 0 0 -0.53,0.18 1.12,1.12 0 0 0 -0.28,0.4 v 3.19 h -0.73 v -4.43 h 0.67 v 0.59 0 a 1.15,1.15 0 0 1 0.12,-0.25 1,1 0 0 1 0.18,-0.22 0.93,0.93 0 0 1 0.26,-0.15 1,1 0 0 1 0.36,0 h 0.25 l 0.15,0.05 z m 3.4,0.82 c 0,0.19 0,0.35 0,0.49 0,0.14 0,0.25 0,0.35 h -2.21 a 1.85,1.85 0 0 0 0.33,1.13 1,1 0 0 0 0.79,0.4 1.32,1.32 0 0 0 0.61,-0.16 0.7,0.7 0 0 0 0.19,-0.13 l 0.11,-0.09 0.28,0.51 -0.14,0.13 a 0.92,0.92 0 0 1 -0.24,0.17 1.67,1.67 0 0 1 -0.38,0.15 1.77,1.77 0 0 1 -0.54,0.07 1.9,1.9 0 0 1 -0.73,-0.14 1.46,1.46 0 0 1 -0.57,-0.42 2,2 0 0 1 -0.35,-0.72 3.7,3.7 0 0 1 -0.13,-1.06 3.32,3.32 0 0 1 0.13,-1 2,2 0 0 1 0.36,-0.69 1.43,1.43 0 0 1 0.52,-0.4 1.57,1.57 0 0 1 0.65,-0.13 1.24,1.24 0 0 1 1,0.39 1.7,1.7 0 0 1 0.32,1.13 z m -1.37,-1 a 0.71,0.71 0 0 0 -0.62,0.32 1.72,1.72 0 0 0 -0.27,0.94 h 1.58 c 0,0 0,-0.07 0,-0.13 0,-0.06 0,-0.12 0,-0.18 a 1.13,1.13 0 0 0 -0.19,-0.71 0.61,0.61 0 0 0 -0.5,-0.23 z m 5.46,0.08 h -0.54 a 1.46,1.46 0 0 1 0.21,0.77 1.52,1.52 0 0 1 -0.12,0.62 1.29,1.29 0 0 1 -0.31,0.47 1.47,1.47 0 0 1 -0.48,0.29 1.66,1.66 0 0 1 -0.59,0.1 h -0.24 a 0.9,0.9 0 0 0 -0.22,0.14 0.34,0.34 0 0 0 -0.12,0.27 0.27,0.27 0 0 0 0.1,0.22 0.52,0.52 0 0 0 0.34,0.08 h 0.55 a 2.47,2.47 0 0 1 0.57,0.07 1.29,1.29 0 0 1 0.46,0.2 0.88,0.88 0 0 1 0.3,0.36 1.17,1.17 0 0 1 0.11,0.52 1.34,1.34 0 0 1 -0.15,0.64 1.44,1.44 0 0 1 -0.42,0.5 2,2 0 0 1 -0.66,0.33 3,3 0 0 1 -0.87,0.11 1.65,1.65 0 0 1 -1.06,-0.3 1.07,1.07 0 0 1 -0.36,-0.87 0.93,0.93 0 0 1 0.09,-0.42 1.38,1.38 0 0 1 0.2,-0.31 1.13,1.13 0 0 1 0.24,-0.21 l 0.2,-0.12 v 0 a 0.7,0.7 0 0 1 -0.28,-0.6 0.67,0.67 0 0 1 0.06,-0.3 0.89,0.89 0 0 1 0.16,-0.21 0.7,0.7 0 0 1 0.17,-0.13 l 0.13,-0.07 v 0 a 1.24,1.24 0 0 1 -0.54,-0.48 1.64,1.64 0 0 1 -0.2,-0.85 1.54,1.54 0 0 1 0.12,-0.63 1.17,1.17 0 0 1 0.31,-0.46 1.37,1.37 0 0 1 0.47,-0.27 1.79,1.79 0 0 1 0.57,-0.09 1.58,1.58 0 0 1 0.58,0.11 h 1.32 z m -2,3.63 a 1.72,1.72 0 0 1 -0.34,0 l -0.16,0.11 a 1.07,1.07 0 0 0 -0.14,0.16 1,1 0 0 0 -0.1,0.21 0.82,0.82 0 0 0 0,0.28 c 0,0.47 0.25,0.7 0.77,0.7 a 1.52,1.52 0 0 0 1,-0.26 0.76,0.76 0 0 0 0.32,-0.59 0.51,0.51 0 0 0 -0.2,-0.45 1,1 0 0 0 -0.53,-0.13 z m 1,-2.86 a 0.83,0.83 0 0 0 -0.22,-0.66 0.72,0.72 0 0 0 -0.52,-0.2 0.76,0.76 0 0 0 -0.54,0.2 0.84,0.84 0 0 0 -0.23,0.66 0.85,0.85 0 0 0 0.23,0.67 0.72,0.72 0 0 0 0.52,0.2 0.76,0.76 0 0 0 0.54,-0.2 0.84,0.84 0 0 0 0.17,-0.66 z m 2.62,3 H 158 v -4.33 h 0.74 z m -0.37,-5.39 A 0.46,0.46 0 0 1 158,13 a 0.52,0.52 0 0 1 -0.13,-0.38 0.52,0.52 0 0 1 0.13,-0.37 0.53,0.53 0 0 1 0.72,0 0.52,0.52 0 0 1 0.13,0.37 0.52,0.52 0 0 1 -0.13,0.38 0.46,0.46 0 0 1 -0.34,0.1 z m 4.27,2.51 a 3.62,3.62 0 0 1 0,0.49 c 0,0.13 0,0.25 0,0.35 h -2.22 a 2,2 0 0 0 0.33,1.13 1,1 0 0 0 0.85,0.37 1.21,1.21 0 0 0 0.34,-0.05 1.69,1.69 0 0 0 0.27,-0.11 0.91,0.91 0 0 0 0.19,-0.13 l 0.11,-0.09 0.27,0.51 -0.13,0.13 a 0.84,0.84 0 0 1 -0.25,0.17 1.5,1.5 0 0 1 -0.38,0.15 1.7,1.7 0 0 1 -0.53,0.07 2,2 0 0 1 -0.74,-0.14 1.43,1.43 0 0 1 -0.56,-0.42 2,2 0 0 1 -0.35,-0.72 3.7,3.7 0 0 1 -0.13,-1.06 3.32,3.32 0 0 1 0.13,-1 2,2 0 0 1 0.36,-0.69 1.43,1.43 0 0 1 0.52,-0.4 1.53,1.53 0 0 1 0.64,-0.13 1.26,1.26 0 0 1 1,0.39 1.75,1.75 0 0 1 0.23,1.19 z m -1.37,-1 a 0.73,0.73 0 0 0 -0.63,0.32 1.91,1.91 0 0 0 -0.27,0.94 H 162 c 0,0 0,-0.07 0,-0.13 v -0.18 a 1.2,1.2 0 0 0 -0.18,-0.71 0.61,0.61 0 0 0 -0.54,-0.2 z m 4.26,0.15 h -0.12 -0.24 a 0.77,0.77 0 0 0 -0.54,0.18 1.27,1.27 0 0 0 -0.28,0.4 v 3.19 h -0.73 v -4.37 h 0.67 v 0.59 0 a 1.89,1.89 0 0 1 0.11,-0.25 1,1 0 0 1 0.18,-0.22 1.1,1.1 0 0 1 0.26,-0.15 1,1 0 0 1 0.36,0 h 0.25 l 0.15,0.05 z m 3.76,3.7 h -0.67 V 18 18 a 0.92,0.92 0 0 1 -0.12,0.16 1.18,1.18 0 0 1 -0.23,0.2 1.2,1.2 0 0 1 -0.34,0.16 1.23,1.23 0 0 1 -0.44,0.08 1.42,1.42 0 0 1 -0.52,-0.09 1,1 0 0 1 -0.39,-0.28 1.26,1.26 0 0 1 -0.25,-0.49 A 2.63,2.63 0 0 1 166.3,17 v -2.85 h 0.7 v 2.79 a 1.27,1.27 0 0 0 0.17,0.77 0.64,0.64 0 0 0 0.55,0.24 0.9,0.9 0 0 0 0.53,-0.16 2.25,2.25 0 0 0 0.35,-0.31 v -3.33 h 0.73 z m 3.49,0 v -2.8 a 1.28,1.28 0 0 0 -0.19,-0.79 0.66,0.66 0 0 0 -0.56,-0.24 0.85,0.85 0 0 0 -0.54,0.17 1.83,1.83 0 0 0 -0.35,0.31 v 3.35 h -0.73 v -4.3 h 0.67 v 0.49 0 a 0.5,0.5 0 0 1 0.11,-0.16 1,1 0 0 1 0.24,-0.2 2.15,2.15 0 0 1 0.34,-0.17 1.35,1.35 0 0 1 0.46,-0.07 1.72,1.72 0 0 1 0.52,0.08 0.94,0.94 0 0 1 0.4,0.28 1.33,1.33 0 0 1 0.25,0.49 2.7,2.7 0 0 1 0.09,0.75 v 2.85 z m 4.94,-3.77 h -0.55 a 1.46,1.46 0 0 1 0.21,0.77 1.71,1.71 0 0 1 -0.11,0.62 1.31,1.31 0 0 1 -0.32,0.47 1.29,1.29 0 0 1 -0.48,0.29 1.63,1.63 0 0 1 -0.59,0.1 h -0.23 a 1,1 0 0 0 -0.23,0.14 0.34,0.34 0 0 0 -0.12,0.27 0.28,0.28 0 0 0 0.11,0.22 0.49,0.49 0 0 0 0.33,0.08 h 0.56 a 2.62,2.62 0 0 1 0.57,0.07 1.32,1.32 0 0 1 0.45,0.2 1,1 0 0 1 0.31,0.36 1.18,1.18 0 0 1 0.1,0.52 1.34,1.34 0 0 1 -0.15,0.64 1.26,1.26 0 0 1 -0.42,0.5 2,2 0 0 1 -0.66,0.33 2.89,2.89 0 0 1 -0.86,0.11 1.61,1.61 0 0 1 -1.06,-0.3 1.07,1.07 0 0 1 -0.36,-0.87 1.08,1.08 0 0 1 0.08,-0.42 1.41,1.41 0 0 1 0.21,-0.31 0.79,0.79 0 0 1 0.24,-0.21 L 175,18.14 v 0 a 0.7,0.7 0 0 1 -0.28,-0.6 0.56,0.56 0 0 1 0.07,-0.3 0.66,0.66 0 0 1 0.15,-0.21 l 0.17,-0.13 0.13,-0.07 v 0 a 1.17,1.17 0 0 1 -0.53,-0.48 1.78,1.78 0 0 1 -0.09,-1.48 1.19,1.19 0 0 1 0.32,-0.46 1.24,1.24 0 0 1 0.46,-0.27 1.81,1.81 0 0 1 0.58,-0.09 1.66,1.66 0 0 1 0.58,0.11 h 1.32 z m -2,3.63 a 1.72,1.72 0 0 1 -0.34,0 l -0.15,0.11 a 1.07,1.07 0 0 0 -0.14,0.16 0.7,0.7 0 0 0 -0.11,0.21 1.18,1.18 0 0 0 0,0.28 c 0,0.47 0.26,0.7 0.77,0.7 a 1.55,1.55 0 0 0 1,-0.26 0.74,0.74 0 0 0 0.31,-0.59 0.49,0.49 0 0 0 -0.2,-0.45 1,1 0 0 0 -0.53,-0.13 z m 1,-2.86 a 0.87,0.87 0 0 0 -0.22,-0.66 0.74,0.74 0 0 0 -0.52,-0.2 0.76,0.76 0 0 0 -0.55,0.2 0.83,0.83 0 0 0 -0.22,0.66 0.84,0.84 0 0 0 0.22,0.67 0.75,0.75 0 0 0 0.53,0.2 0.76,0.76 0 0 0 0.54,-0.2 0.88,0.88 0 0 0 0.12,-0.63 z m -116,8.37 H 59.9 v 3.75 h -0.74 v -3.71 h -0.52 v -0.49 l 0.52,-0.1 v -0.86 a 1.81,1.81 0 0 1 0.1,-0.61 1.27,1.27 0 0 1 0.27,-0.42 1,1 0 0 1 0.38,-0.23 1.35,1.35 0 0 1 0.46,-0.07 1.1,1.1 0 0 1 0.39,0.06 l 0.22,0.1 -0.15,0.61 a 0.79,0.79 0 0 0 -0.16,-0.08 0.55,0.55 0 0 0 -0.24,0 0.48,0.48 0 0 0 -0.4,0.16 1,1 0 0 0 -0.13,0.6 v 0.78 h 1 z m 3.76,3.75 h -0.67 v -0.49 0 l -0.12,0.16 a 1.11,1.11 0 0 1 -0.23,0.19 1.35,1.35 0 0 1 -0.34,0.17 1.23,1.23 0 0 1 -0.44,0.07 1.39,1.39 0 0 1 -0.52,-0.08 0.94,0.94 0 0 1 -0.4,-0.28 1.26,1.26 0 0 1 -0.25,-0.49 3.13,3.13 0 0 1 -0.08,-0.75 v -2.8 h 0.73 v 2.79 a 1.26,1.26 0 0 0 0.18,0.77 0.61,0.61 0 0 0 0.54,0.23 0.93,0.93 0 0 0 0.54,-0.15 1.77,1.77 0 0 0 0.34,-0.32 v -3.32 h 0.73 z M 62.65,22 a 0.45,0.45 0 0 1 -0.12,0.33 0.43,0.43 0 0 1 -0.62,0 0.45,0.45 0 0 1 -0.12,-0.33 0.49,0.49 0 0 1 0.12,-0.34 0.46,0.46 0 0 1 0.62,0 0.49,0.49 0 0 1 0.12,0.34 z m 1.4,0 a 0.45,0.45 0 0 1 -0.13,0.33 0.4,0.4 0 0 1 -0.31,0.13 0.38,0.38 0 0 1 -0.3,-0.13 0.42,0.42 0 0 1 -0.13,-0.33 0.45,0.45 0 0 1 0.13,-0.34 0.41,0.41 0 0 1 0.3,-0.12 0.43,0.43 0 0 1 0.31,0.12 0.49,0.49 0 0 1 0.13,0.34 z m 3.43,1.89 -0.11,-0.05 a 0.9,0.9 0 0 0 -0.25,0 0.77,0.77 0 0 0 -0.54,0.18 1,1 0 0 0 -0.27,0.4 v 3.19 h -0.73 v -4.34 h 0.66 v 0.58 0 a 1.87,1.87 0 0 1 0.12,-0.25 0.91,0.91 0 0 1 0.18,-0.21 0.61,0.61 0 0 1 0.26,-0.15 1,1 0 0 1 0.36,-0.06 0.78,0.78 0 0 1 0.24,0 0.64,0.64 0 0 1 0.15,0.05 z m 4.51,0.5 2.11,3.2 h -1 l -1.8,-2.84 h -0.47 v 2.84 h -0.79 v -6.22 h 0.79 v 2.77 h 0.47 l 1.75,-2.77 H 74 Z m 5.67,3.2 H 77 v -0.49 0 l -0.12,0.16 a 1.11,1.11 0 0 1 -0.23,0.19 1.35,1.35 0 0 1 -0.34,0.17 1.23,1.23 0 0 1 -0.44,0.07 1.42,1.42 0 0 1 -0.52,-0.08 0.94,0.94 0 0 1 -0.4,-0.28 1.25,1.25 0 0 1 -0.24,-0.49 2.65,2.65 0 0 1 -0.09,-0.75 v -2.82 h 0.73 v 2.79 a 1.26,1.26 0 0 0 0.18,0.77 0.63,0.63 0 0 0 0.55,0.23 0.92,0.92 0 0 0 0.53,-0.15 1.77,1.77 0 0 0 0.34,-0.32 v -3.32 h 0.74 z m 1.84,-1 a 0.69,0.69 0 0 0 0.08,0.38 0.28,0.28 0 0 0 0.26,0.11 0.42,0.42 0 0 0 0.17,0 h 0.1 l 0.07,0.54 -0.2,0.07 a 1.37,1.37 0 0 1 -0.39,0.05 0.81,0.81 0 0 1 -0.6,-0.23 1.13,1.13 0 0 1 -0.22,-0.8 v -5.5 l 0.73,-0.08 z m 3.19,-2.73 h -1 v 2.41 a 1.18,1.18 0 0 0 0.12,0.63 0.46,0.46 0 0 0 0.4,0.16 0.79,0.79 0 0 0 0.28,0 l 0.17,-0.08 0.1,0.58 a 0.77,0.77 0 0 1 -0.22,0.12 1.17,1.17 0 0 1 -0.46,0.07 1.07,1.07 0 0 1 -0.84,-0.31 1.51,1.51 0 0 1 -0.28,-1 v -2.58 h -0.52 v -0.49 l 0.52,-0.1 0.08,-1.22 h 0.65 v 1.22 h 1 z m 3.87,3.75 h -0.67 v -0.49 0 a 0.64,0.64 0 0 1 -0.11,0.16 1.11,1.11 0 0 1 -0.23,0.19 1.54,1.54 0 0 1 -0.34,0.17 1.25,1.25 0 0 1 -0.45,0.07 1.46,1.46 0 0 1 -0.52,-0.08 1,1 0 0 1 -0.39,-0.28 1.26,1.26 0 0 1 -0.25,-0.49 3.13,3.13 0 0 1 -0.08,-0.75 v -2.84 h 0.73 v 2.79 a 1.26,1.26 0 0 0 0.18,0.77 0.61,0.61 0 0 0 0.54,0.23 1,1 0 0 0 0.54,-0.15 1.77,1.77 0 0 0 0.34,-0.32 v -3.32 h 0.73 z m 3,-3.7 -0.12,-0.05 a 0.82,0.82 0 0 0 -0.24,0 0.77,0.77 0 0 0 -0.54,0.18 1,1 0 0 0 -0.27,0.4 v 3.19 h -0.74 v -4.36 h 0.67 v 0.58 0 a 1.87,1.87 0 0 1 0.12,-0.25 0.91,0.91 0 0 1 0.18,-0.21 0.61,0.61 0 0 1 0.26,-0.15 1,1 0 0 1 0.35,-0.06 0.81,0.81 0 0 1 0.25,0 0.64,0.64 0 0 1 0.15,0.05 z m 5.47,3.7 h -0.67 v -0.49 0 a 0.64,0.64 0 0 1 -0.11,0.16 1.11,1.11 0 0 1 -0.23,0.19 1.54,1.54 0 0 1 -0.34,0.17 1.29,1.29 0 0 1 -0.45,0.07 1.46,1.46 0 0 1 -0.52,-0.08 1,1 0 0 1 -0.39,-0.28 1.26,1.26 0 0 1 -0.25,-0.49 3.13,3.13 0 0 1 -0.08,-0.75 v -2.84 h 0.73 v 2.79 a 1.26,1.26 0 0 0 0.18,0.77 0.61,0.61 0 0 0 0.54,0.23 1,1 0 0 0 0.54,-0.15 2.12,2.12 0 0 0 0.34,-0.32 v -3.32 h 0.73 z m 3.49,0 v -2.8 a 1.33,1.33 0 0 0 -0.18,-0.79 0.69,0.69 0 0 0 -0.57,-0.24 0.91,0.91 0 0 0 -0.54,0.16 1.78,1.78 0 0 0 -0.34,0.32 v 3.35 h -0.74 v -4.34 h 0.67 v 0.48 0 L 97,23.6 a 1.14,1.14 0 0 1 0.23,-0.2 1.43,1.43 0 0 1 0.35,-0.17 1.25,1.25 0 0 1 0.45,-0.07 1.67,1.67 0 0 1 0.52,0.08 0.94,0.94 0 0 1 0.4,0.28 1.33,1.33 0 0 1 0.25,0.49 2.65,2.65 0 0 1 0.09,0.75 v 2.85 z m 1.63,-2.11 a 3.14,3.14 0 0 1 0.17,-1.1 2.1,2.1 0 0 1 0.44,-0.72 1.56,1.56 0 0 1 0.62,-0.38 2.09,2.09 0 0 1 0.69,-0.12 1.28,1.28 0 0 1 0.36,0 1.09,1.09 0 0 1 0.25,0.07 v -2.04 l 0.73,-0.08 v 6.48 h -0.67 v -0.47 0 a 0.77,0.77 0 0 1 -0.1,0.15 0.91,0.91 0 0 1 -0.2,0.19 1.2,1.2 0 0 1 -0.32,0.17 1.42,1.42 0 0 1 -0.44,0.06 1.4,1.4 0 0 1 -0.58,-0.12 1.21,1.21 0 0 1 -0.49,-0.39 1.88,1.88 0 0 1 -0.33,-0.68 3.76,3.76 0 0 1 -0.1,-1.02 z m 1.72,1.56 a 1.06,1.06 0 0 0 0.31,0 1.23,1.23 0 0 0 0.23,-0.11 l 0.17,-0.14 0.1,-0.13 V 24 a 1,1 0 0 0 -0.23,-0.11 1.06,1.06 0 0 0 -0.33,0 1.4,1.4 0 0 0 -0.47,0.08 1,1 0 0 0 -0.39,0.29 1.52,1.52 0 0 0 -0.26,0.51 2.93,2.93 0 0 0 -0.09,0.78 2.77,2.77 0 0 0 0.08,0.76 1.48,1.48 0 0 0 0.21,0.49 0.76,0.76 0 0 0 0.31,0.26 0.73,0.73 0 0 0 0.39,0 z m 9.94,-5.69 v 6.24 h -0.76 v -4 c 0,-0.15 0,-0.29 0,-0.41 0,-0.12 0,-0.22 0,-0.28 v 0 c 0,0.13 -0.09,0.36 -0.18,0.67 -0.09,0.31 -0.2,0.64 -0.32,1 l -1,3.05 h -0.63 l -1,-3.05 c -0.12,-0.36 -0.22,-0.69 -0.32,-1 -0.1,-0.31 -0.15,-0.54 -0.18,-0.67 v 0 c 0,0.07 0,0.16 0,0.29 0,0.13 0,0.25 0,0.41 0,0.16 0,0.32 0,0.5 v 3.52 h -0.76 v -6.27 h 0.87 l 1.48,4.3 c 0.06,0.2 0.12,0.39 0.17,0.58 a 2.93,2.93 0 0 1 0.1,0.5 v 0 a 2,2 0 0 1 0.08,-0.49 c 0,-0.19 0.11,-0.38 0.18,-0.58 L 111,21.37 Z m 4,3.36 c 0,0.19 0,0.35 0,0.48 a 3,3 0 0 1 0,0.36 h -2.21 a 1.87,1.87 0 0 0 0.33,1.13 1,1 0 0 0 0.84,0.36 1.25,1.25 0 0 0 0.35,0 1.69,1.69 0 0 0 0.27,-0.11 l 0.19,-0.13 0.11,-0.1 0.27,0.52 -0.14,0.13 a 1.24,1.24 0 0 1 -0.24,0.17 1.5,1.5 0 0 1 -0.38,0.15 2.09,2.09 0 0 1 -0.53,0.06 1.92,1.92 0 0 1 -0.74,-0.13 1.36,1.36 0 0 1 -0.56,-0.42 2.17,2.17 0 0 1 -0.36,-0.73 4,4 0 0 1 -0.13,-1.05 3.31,3.31 0 0 1 0.14,-1 1.87,1.87 0 0 1 0.35,-0.69 1.46,1.46 0 0 1 0.53,-0.4 1.53,1.53 0 0 1 0.64,-0.13 1.26,1.26 0 0 1 1,0.39 1.75,1.75 0 0 1 0.32,1.14 z m -1.38,-1 a 0.74,0.74 0 0 0 -0.62,0.33 1.72,1.72 0 0 0 -0.27,0.94 h 1.58 a 1.23,1.23 0 0 0 0,-0.13 V 24.7 A 1.19,1.19 0 0 0 115,24 0.63,0.63 0 0 0 114.48,23.75 Z m 2.16,1.75 a 2.92,2.92 0 0 1 0.17,-1.1 2,2 0 0 1 0.44,-0.72 1.49,1.49 0 0 1 0.62,-0.38 2,2 0 0 1 0.68,-0.12 1.4,1.4 0 0 1 0.37,0 1.26,1.26 0 0 1 0.25,0.07 v -2.02 l 0.73,-0.08 v 6.48 h -0.67 v -0.47 0 a 0.48,0.48 0 0 1 -0.1,0.15 0.68,0.68 0 0 1 -0.19,0.19 1.2,1.2 0 0 1 -0.32,0.17 1.51,1.51 0 0 1 -0.44,0.06 1.48,1.48 0 0 1 -0.59,-0.12 1.26,1.26 0 0 1 -0.48,-0.39 1.88,1.88 0 0 1 -0.33,-0.68 3.76,3.76 0 0 1 -0.09,-1.02 z m 1.71,1.56 a 1,1 0 0 0 0.31,0 1.33,1.33 0 0 0 0.24,-0.11 l 0.16,-0.14 0.11,-0.13 V 24 a 1.23,1.23 0 0 0 -0.23,-0.11 1.06,1.06 0 0 0 -0.33,0 1.51,1.51 0 0 0 -0.48,0.08 1,1 0 0 0 -0.38,0.29 1.36,1.36 0 0 0 -0.26,0.51 2.93,2.93 0 0 0 -0.09,0.78 3.28,3.28 0 0 0 0.07,0.76 1.3,1.3 0 0 0 0.22,0.49 0.81,0.81 0 0 0 0.3,0.26 0.78,0.78 0 0 0 0.41,0 z m 3.4,0.55 H 121 v -4.32 h 0.73 z m -0.36,-5.39 a 0.46,0.46 0 0 1 -0.36,-0.15 0.52,0.52 0 0 1 -0.13,-0.38 0.52,0.52 0 0 1 0.13,-0.37 0.49,0.49 0 0 1 0.36,-0.14 0.51,0.51 0 0 1 0.36,0.14 0.52,0.52 0 0 1 0.13,0.37 0.52,0.52 0 0 1 -0.13,0.38 0.48,0.48 0 0 1 -0.31,0.17 z m 4.27,2.51 c 0,0.19 0,0.35 0,0.48 0,0.13 0,0.26 0,0.36 h -2.22 a 2,2 0 0 0 0.33,1.13 1,1 0 0 0 0.85,0.36 1.22,1.22 0 0 0 0.34,0 1.69,1.69 0 0 0 0.27,-0.11 0.91,0.91 0 0 0 0.19,-0.13 0.57,0.57 0 0 0 0.11,-0.1 l 0.27,0.52 -0.13,0.13 a 1.35,1.35 0 0 1 -0.25,0.17 1.5,1.5 0 0 1 -0.38,0.15 2.09,2.09 0 0 1 -0.53,0.06 2,2 0 0 1 -0.74,-0.13 1.36,1.36 0 0 1 -0.56,-0.42 2.17,2.17 0 0 1 -0.36,-0.73 4,4 0 0 1 -0.12,-1.05 3.32,3.32 0 0 1 0.13,-1 2,2 0 0 1 0.35,-0.69 1.55,1.55 0 0 1 0.53,-0.4 1.53,1.53 0 0 1 0.64,-0.13 1.26,1.26 0 0 1 1,0.39 1.75,1.75 0 0 1 0.33,1.16 z m -1.37,-1 a 0.74,0.74 0 0 0 -0.63,0.33 1.91,1.91 0 0 0 -0.27,0.94 H 125 a 1.23,1.23 0 0 0 0,-0.13 V 24.7 a 1.19,1.19 0 0 0 -0.18,-0.7 0.61,0.61 0 0 0 -0.53,-0.25 z m 4.76,3.9 v -2.8 a 1.33,1.33 0 0 0 -0.19,-0.79 0.66,0.66 0 0 0 -0.56,-0.24 1,1 0 0 0 -0.55,0.16 2.14,2.14 0 0 0 -0.34,0.32 v 3.35 h -0.73 v -4.34 h 0.67 v 0.48 0 l 0.12,-0.15 a 1,1 0 0 1 0.24,-0.2 1.35,1.35 0 0 1 0.34,-0.17 1.25,1.25 0 0 1 0.45,-0.07 1.74,1.74 0 0 1 0.53,0.08 1,1 0 0 1 0.4,0.28 1.5,1.5 0 0 1 0.25,0.49 2.65,2.65 0 0 1 0.09,0.75 v 2.85 z"
         id="path256" />
    </g>
    <g
       id="Adler-und-Saeulenelement"
       transform="matrix(0.26458333,0,0,0.26458333,134.68527,139.62839)">
      <path
         d="m 39.06,18 a 4.58,4.58 0 0 0 0,-0.53 c 0,-0.1 0,-0.21 0,-0.34 a 2.72,2.72 0 0 0 2.84,-2.37 2.25,2.25 0 0 0 -0.65,-1.41 h 0.16 a 2.54,2.54 0 0 1 0.85,1.74 3.24,3.24 0 0 1 -3.2,2.91 M 37.53,12.75 A 1,1 0 0 0 37.35,12.3 c 0,-0.15 0.06,-0.3 0.31,-0.18 -0.13,0.14 0,0.38 0,0.38 0,0 0.27,-0.12 0.22,-0.31 0.4,0.1 0.11,0.65 -0.32,0.56 m -0.35,0.78 A 1.55,1.55 0 0 0 36.9,12.9 0.9,0.9 0 0 0 36.24,12.55 1.48,1.48 0 0 0 35.73,12.68 1.49,1.49 0 0 1 35.58,12.23 c 0,-0.11 0.18,-0.22 0.54,-0.22 0.78,0 1.25,0.35 1.25,0.95 a 1.35,1.35 0 0 1 -0.16,0.57 m 2,10.1 a 0.4,0.4 0 0 1 0.18,0 10.86,10.86 0 0 0 1.14,1.82 v 0 a 7.61,7.61 0 0 1 1.21,-0.12 v 0 a 0.21,0.21 0 0 1 0.14,0 0.23,0.23 0 0 1 0.05,0.16 0.84,0.84 0 0 1 -0.11,0.39 A 1.08,1.08 0 0 0 41,25.7 1.1,1.1 0 0 0 40.65,25.76 H 40.58 L 40.82,26 c 0.37,0.37 0.68,0.69 0.68,0.9 a 0.53,0.53 0 0 1 -0.23,0.37 2.06,2.06 0 0 0 -0.8,-1.2 v 0 0.13 a 3.79,3.79 0 0 0 0,0.38 c 0,0.74 -0.07,0.86 -0.33,0.86 h -0.13 a 1.26,1.26 0 0 0 0.2,-0.83 v -0.34 a 3.47,3.47 0 0 1 0,-0.4 v 0 0 a 3.52,3.52 0 0 0 -0.51,-0.05 1.07,1.07 0 0 0 -0.79,0.21 0.66,0.66 0 0 1 -0.24,-0.37 c 0,-0.15 0.09,-0.17 0.22,-0.17 h 0.2 a 4.66,4.66 0 0 0 0.88,0.06 v 0 0 a 5.91,5.91 0 0 0 -1,-1.53 c 0,-0.17 0.1,-0.29 0.27,-0.29 m -4.69,1.82 v 0 0 a 4.66,4.66 0 0 0 0.88,-0.06 h 0.2 c 0.13,0 0.22,0 0.22,0.17 a 0.66,0.66 0 0 1 -0.24,0.37 1.07,1.07 0 0 0 -0.79,-0.21 3.52,3.52 0 0 0 -0.51,0.05 v 0 0 a 2,2 0 0 1 0,0.4 v 0.34 a 1.26,1.26 0 0 0 0.2,0.83 h -0.13 c -0.26,0 -0.34,-0.12 -0.34,-0.86 0,-0.15 0,-0.28 0,-0.38 v -0.13 0 a 2.06,2.06 0 0 0 -0.8,1.2 A 0.54,0.54 0 0 1 33,26.9 c 0,-0.21 0.32,-0.53 0.69,-0.9 l 0.21,-0.21 v 0 h -0.07 a 1.1,1.1 0 0 0 -0.35,-0.06 1.08,1.08 0 0 0 -0.83,0.25 0.84,0.84 0 0 1 -0.11,-0.39 0.23,0.23 0 0 1 0,-0.16 0.21,0.21 0 0 1 0.14,0 v 0 a 7.61,7.61 0 0 1 1.21,0.12 v 0 a 10.86,10.86 0 0 0 1.14,-1.82 0.4,0.4 0 0 1 0.18,0 c 0.17,0 0.22,0.12 0.27,0.29 a 5.91,5.91 0 0 0 -1,1.53 M 32.16,15.05 A 2.54,2.54 0 0 1 33,13.31 h 0.16 a 2.26,2.26 0 0 0 -0.66,1.41 2.74,2.74 0 0 0 2.89,2.37 c 0,0.11 0,0.22 0,0.34 a 4.45,4.45 0 0 0 0,0.53 3.24,3.24 0 0 1 -3.26,-2.94 m 11.63,2.67 a 2.14,2.14 0 0 0 2.3,1.21 6.53,6.53 0 0 1 -1.5,-1.71 L 43.17,15 a 3.33,3.33 0 0 0 -1.05,-1.85 1.91,1.91 0 0 0 0.43,-0.21 23.16,23.16 0 0 1 -2.36,-0.47 0.47,0.47 0 0 0 -0.53,0.45 c 0,0.28 0.32,0.58 0.86,0.58 a 3,3 0 0 0 0.46,0 2.18,2.18 0 0 1 0.53,1.31 c 0,1 -1.19,1.77 -2.39,1.77 h -0.2 a 2.69,2.69 0 0 1 -0.48,-1.13 c 0,-0.8 0.52,-1.44 0.52,-2.23 a 1.49,1.49 0 0 0 -0.33,-0.91 1.38,1.38 0 0 0 0.35,-0.42 0.83,0.83 0 0 1 -0.34,0 c -0.57,0 -1,-0.15 -1.5,-0.15 -0.26,0 -0.33,0.08 -0.33,0.16 0,0.08 0,0.06 0,0.07 a 1.47,1.47 0 0 0 -0.3,-0.08 2,2 0 0 0 -0.43,0 c -0.56,0 -0.76,0.23 -0.76,0.43 a 1.69,1.69 0 0 0 0.29,0.71 1.88,1.88 0 0 1 0.59,-0.18 c 0.3,0 0.56,0.28 0.7,0.62 a 3.25,3.25 0 0 1 -0.44,0 3.15,3.15 0 0 1 -1,-0.2 c 0,0.08 0.15,0.28 0.45,0.39 a 6.82,6.82 0 0 0 1.1,0.22 c 0,0 -0.1,0.21 -0.22,0.24 H 36.72 A 5.74,5.74 0 0 1 35.66,13.8 c 0,0 0,0 0,0 0,0.21 0.54,0.67 1,0.85 a 5.41,5.41 0 0 0 -1.15,1.85 h -0.2 c -1.2,0 -2.39,-0.77 -2.39,-1.77 a 2.18,2.18 0 0 1 0.53,-1.31 2.91,2.91 0 0 0 0.46,0 c 0.54,0 0.84,-0.3 0.86,-0.58 0.02,-0.28 -0.21,-0.45 -0.54,-0.45 a 22.32,22.32 0 0 1 -2.35,0.47 1.71,1.71 0 0 0 0.43,0.21 3.33,3.33 0 0 0 -1.04,1.93 l -1.42,2.27 a 6.53,6.53 0 0 1 -1.5,1.71 2.14,2.14 0 0 0 2.3,-1.21 l 0.73,-1.16 a 4.28,4.28 0 0 0 0.2,0.44 l -1.45,2.32 a 6.7,6.7 0 0 1 -1.5,1.63 2.14,2.14 0 0 0 2.3,-1.21 l 1.25,-2 a 2.76,2.76 0 0 0 0.3,0.29 l -1.76,2.82 a 6.61,6.61 0 0 1 -1.51,1.71 2.15,2.15 0 0 0 2.31,-1.21 l 1.71,-2.75 a 3.24,3.24 0 0 0 0.35,0.21 l -2.09,3.35 A 6.42,6.42 0 0 1 30,24 2.15,2.15 0 0 0 32.31,22.79 l 2.16,-3.45 a 3.54,3.54 0 0 0 0.39,0.14 l -2.44,3.9 A 6.73,6.73 0 0 1 30.9,25 2.15,2.15 0 0 0 33.2,23.79 l 2.6,-4.16 h 0.08 a 2.12,2.12 0 0 1 0.12,0.64 4.67,4.67 0 0 1 -1.89,3.35 0.81,0.81 0 0 0 0.29,0 2.22,2.22 0 0 0 0.44,0 10.4,10.4 0 0 1 -1,1.61 7.45,7.45 0 0 0 -1.14,-0.11 c -0.34,0 -0.38,0.19 -0.38,0.37 a 0.9,0.9 0 0 0 0.31,0.68 c 0.06,-0.15 0.19,-0.36 0.81,-0.36 h 0.06 c -0.18,0.2 -0.75,0.66 -0.75,1 a 0.67,0.67 0 0 0 0.63,0.61 0.5,0.5 0 0 1 0,-0.2 1.59,1.59 0 0 1 0.49,-0.9 0.76,0.76 0 0 0 0,0.15 c 0,0.71 0.07,1 0.52,1 a 0.67,0.67 0 0 0 0.42,-0.16 1,1 0 0 1 -0.31,-0.88 c 0,-0.1 0,-0.2 0,-0.34 a 1.51,1.51 0 0 0 0,-0.3 2.3,2.3 0 0 1 0.35,0 c 0,0 0.64,-0.05 0.79,0.28 0.18,-0.16 0.43,-0.38 0.43,-0.63 0,-0.25 -0.08,-0.35 -0.41,-0.35 -0.12,0 -0.51,0.08 -0.84,0.08 a 8.37,8.37 0 0 1 0.82,-1.19 0.89,0.89 0 0 0 0.31,0.48 3.35,3.35 0 0 1 0.55,-1.46 9.07,9.07 0 0 1 0.11,1.4 c 0,1.76 -0.42,3.06 -1.32,3.31 a 0.77,0.77 0 0 0 0.62,0.38 c 0.33,0 0.51,-0.37 0.69,-0.72 0.09,0.26 0.36,0.9 0.62,0.9 0.26,0 0.53,-0.64 0.62,-0.9 0.18,0.35 0.36,0.72 0.69,0.72 a 0.77,0.77 0 0 0 0.62,-0.38 c -0.9,-0.25 -1.32,-1.55 -1.32,-3.31 a 7.94,7.94 0 0 1 0.11,-1.4 3.35,3.35 0 0 1 0.6,1.61 0.89,0.89 0 0 0 0.31,-0.48 8.37,8.37 0 0 1 0.82,1.19 c -0.33,0 -0.72,-0.08 -0.84,-0.08 -0.33,0 -0.41,0.19 -0.41,0.35 0,0.16 0.25,0.47 0.43,0.63 0.15,-0.33 0.79,-0.28 0.79,-0.28 a 2.3,2.3 0 0 1 0.35,0 1.51,1.51 0 0 0 0,0.3 c 0,0.14 0,0.24 0,0.34 a 1,1 0 0 1 -0.31,0.88 0.67,0.67 0 0 0 0.42,0.16 c 0.45,0 0.52,-0.33 0.52,-1 a 0.76,0.76 0 0 0 0,-0.15 1.59,1.59 0 0 1 0.49,0.9 0.5,0.5 0 0 1 0,0.2 0.67,0.67 0 0 0 0.63,-0.61 c 0,-0.37 -0.57,-0.83 -0.75,-1 H 41 c 0.62,0 0.74,0.21 0.81,0.36 a 0.9,0.9 0 0 0 0.31,-0.68 c 0,-0.18 0,-0.37 -0.38,-0.37 a 7.7,7.7 0 0 0 -1.15,0.11 11.21,11.21 0 0 1 -1,-1.61 2.22,2.22 0 0 0 0.44,0 0.81,0.81 0 0 0 0.29,0 4.67,4.67 0 0 1 -1.89,-3.35 2.12,2.12 0 0 1 0.12,-0.64 h 0.08 l 2.6,4.16 A 2.14,2.14 0 0 0 43.54,25 6.73,6.73 0 0 1 42,23.33 l -2.44,-3.9 a 3.54,3.54 0 0 0 0.39,-0.14 l 2.16,3.45 A 2.15,2.15 0 0 0 44.46,24 6.42,6.42 0 0 1 43,22.24 l -2.09,-3.35 a 2.39,2.39 0 0 0 0.34,-0.21 l 1.72,2.75 a 2.15,2.15 0 0 0 2.31,1.21 6.61,6.61 0 0 1 -1.51,-1.71 L 42,18.11 a 2.76,2.76 0 0 0 0.3,-0.29 l 1.25,2 A 2.14,2.14 0 0 0 45.81,21 6.7,6.7 0 0 1 44.31,19.29 L 42.86,17 a 4.28,4.28 0 0 0 0.2,-0.44 z"
         id="path259" />
      <path
         d="m 53.37,27.61 h -2.66 v -15.2 h 2.66 z"
         id="path261" />
      <path
         d="M 53.37,42.8 H 50.71 V 27.61 h 2.66 z"
         style="fill:#ff0000"
         id="path263" />
      <path
         d="M 53.37,58 H 50.71 V 42.8 h 2.66 z"
         style="fill:#ffcc00"
         id="path265" />
    </g>
  </g>
</svg>
