<?xml version="1.0" encoding="UTF-8" standalone="no"?>
<!-- Created with Inkscape (http://www.inkscape.org/) -->

<svg
   width="12.371917mm"
   height="12.075583mm"
   viewBox="0 0 12.371917 12.075583"
   version="1.1"
   id="svg339"
   inkscape:version="1.1 (ce6663b3b7, 2021-05-25)"
   sodipodi:docname="neustart.svg"
   xmlns:inkscape="http://www.inkscape.org/namespaces/inkscape"
   xmlns:sodipodi="http://sodipodi.sourceforge.net/DTD/sodipodi-0.dtd"
   xmlns="http://www.w3.org/2000/svg"
   xmlns:svg="http://www.w3.org/2000/svg">
  <sodipodi:namedview
     id="namedview341"
     pagecolor="#ffffff"
     bordercolor="#666666"
     borderopacity="1.0"
     inkscape:pageshadow="2"
     inkscape:pageopacity="0.0"
     inkscape:pagecheckerboard="0"
     inkscape:document-units="mm"
     showgrid="false"
     fit-margin-top="0"
     fit-margin-left="0"
     fit-margin-right="0"
     fit-margin-bottom="0"
     inkscape:zoom="5.9722783"
     inkscape:cx="27.376487"
     inkscape:cy="27.543927"
     inkscape:window-width="1920"
     inkscape:window-height="1016"
     inkscape:window-x="0"
     inkscape:window-y="27"
     inkscape:window-maximized="1"
     inkscape:current-layer="layer1" />
  <defs
     id="defs336" />
  <g
     inkscape:label="Layer 1"
     inkscape:groupmode="layer"
     id="layer1"
     transform="translate(-75.329554,-132.18417)">
    <polygon
       points="526.55,53.82 524.46,53.82 522.78,48.24 522.75,48.24 522.01,49.57 522.01,53.82 519.95,53.82 519.95,41.82 522.01,41.82 522.01,46.26 522.05,46.26 524.21,41.82 526.27,41.82 524.04,46.29 "
       style="fill:#bfaa90"
       id="polygon224"
       transform="matrix(0.26458333,0,0,0.26458333,-62.240548,128.91392)" />
    <path
       d="m 77.33245,139.97879 h 0.545042 v 2.39713 c 0,0.23283 0.0979,0.34925 0.291042,0.34925 0.193145,0 0.291041,-0.11377 0.291041,-0.34925 v -2.39713 h 0.545042 v 2.38125 a 0.83079166,0.83079166 0 0 1 -0.22225,0.62707 0.96837499,0.96837499 0 0 1 -1.222375,0 0.83079166,0.83079166 0 0 1 -0.22225,-0.62707 z"
       style="fill:#bfaa90;stroke-width:0.264583"
       id="path226" />
    <polygon
       points="537.54,41.82 537.54,52.03 540.78,52.03 540.78,53.82 535.47,53.82 535.47,41.82 "
       style="fill:#bfaa90"
       id="polygon228"
       transform="matrix(0.26458333,0,0,0.26458333,-62.240548,128.91392)" />
    <polygon
       points="542.62,43.62 540.62,43.62 540.62,41.82 546.67,41.82 546.67,43.62 544.68,43.62 544.68,53.82 542.62,53.82 "
       style="fill:#bfaa90"
       id="polygon230"
       transform="matrix(0.26458333,0,0,0.26458333,-62.240548,128.91392)" />
    <path
       d="m 82.751117,139.97879 h 0.529167 v 2.39713 c 0,0.23283 0.09525,0.34925 0.288395,0.34925 0.193146,0 0.291042,-0.11377 0.291042,-0.34925 v -2.39713 h 0.545042 v 2.38125 a 0.83079166,0.83079166 0 0 1 -0.22225,0.62707 0.96837499,0.96837499 0 0 1 -1.222375,0 0.83079166,0.83079166 0 0 1 -0.209021,-0.63236 z"
       style="fill:#bfaa90;stroke-width:0.264583"
       id="path232" />
    <path
       d="m 85.39695,143.15379 h -0.529167 v -3.175 h 0.767292 a 0.97895832,0.97895832 0 0 1 0.690563,0.21696 0.94985415,0.94985415 0 0 1 0.232833,0.71967 1.5425208,1.5425208 0 0 1 -0.0344,0.33073 0.89693749,0.89693749 0 0 1 -0.08731,0.23019 0.55033333,0.55033333 0 0 1 -0.264584,0.24077 l 0.463021,1.43668 h -0.552979 l -0.388938,-1.32291 a 1.0239375,1.0239375 0 0 1 -0.129645,0 H 85.39695 Z m 0,-1.74889 h 0.1905 a 0.74612499,0.74612499 0 0 0 0.187854,-0.0238 0.26458333,0.26458333 0 0 0 0.127,-0.0767 0.36777083,0.36777083 0 0 0 0.06879,-0.15346 1.1668125,1.1668125 0 0 0 0.02381,-0.23548 0.59266666,0.59266666 0 0 0 -0.0926,-0.38365 0.39158333,0.39158333 0 0 0 -0.314854,-0.10318 h -0.1905 z"
       style="fill:#bfaa90;stroke-width:0.264583"
       id="path234" />
    <path
       d="m 78.724159,136.87523 a 0.52916666,0.52916666 0 0 0 -0.0344,-0.16669 0.26458333,0.26458333 0 0 0 -0.156104,-0.16139 0.28045833,0.28045833 0 0 0 -0.288396,0.0635 0.35189583,0.35189583 0 0 0 -0.07937,0.22754 0.41539583,0.41539583 0 0 0 0.08202,0.24606 1.3573125,1.3573125 0 0 0 0.201083,0.2249 q 0.121708,0.11642 0.264583,0.23019 a 1.9817291,1.9817291 0 0 1 0.264584,0.26458 1.1694583,1.1694583 0 0 1 0.201083,0.30427 0.85989582,0.85989582 0 0 1 0.08202,0.381 0.87841666,0.87841666 0 0 1 -0.0635,0.34925 0.71702082,0.71702082 0 0 1 -0.174625,0.26458 0.73818749,0.73818749 0 0 1 -0.264584,0.15346 1.0847917,1.0847917 0 0 1 -0.343958,0.0529 0.82285416,0.82285416 0 0 1 -0.325437,-0.0741 0.75406249,0.75406249 0 0 1 -0.248709,-0.18786 0.90487499,0.90487499 0 0 1 -0.15875,-0.27781 1.1800417,1.1800417 0 0 1 -0.0635,-0.33338 l 0.510646,-0.0741 a 0.66674999,0.66674999 0 0 0 0.103188,0.35454 0.26458333,0.26458333 0 0 0 0.216958,0.11906 0.34395833,0.34395833 0 0 0 0.224896,-0.0741 0.26458333,0.26458333 0 0 0 0.08731,-0.21431 0.50270833,0.50270833 0 0 0 -0.07937,-0.26458 1.412875,1.412875 0 0 0 -0.201083,-0.23284 c -0.08202,-0.0767 -0.169333,-0.15081 -0.264583,-0.22754 a 1.9235208,1.9235208 0 0 1 -0.264584,-0.24606 1.2488333,1.2488333 0 0 1 -0.203729,-0.30427 0.92339582,0.92339582 0 0 1 -0.07937,-0.39423 0.75935416,0.75935416 0 0 1 0.216958,-0.57944 0.87047916,0.87047916 0 0 1 0.61648,-0.20108 0.69849999,0.69849999 0 0 1 0.293687,0.0556 0.63499999,0.63499999 0 0 1 0.224896,0.15875 0.84931249,0.84931249 0 0 1 0.153458,0.24077 1.0900833,1.0900833 0 0 1 0.07408,0.30427 z"
       style="fill:#cd3363;stroke-width:0.264583"
       id="path236" />
    <polygon
       points="537.71,28.95 535.75,28.95 535.75,27.18 541.72,27.18 541.72,28.95 539.75,28.95 539.75,39.02 537.71,39.02 "
       style="fill:#cd3363"
       id="polygon238"
       transform="matrix(0.26458333,0,0,0.26458333,-62.240548,128.91392)" />
    <path
       d="M 81.58695,139.23267 H 81.057784 L 81.634575,136.1 h 0.669396 l 0.582083,3.13267 h -0.529166 l -0.09525,-0.6985 h -0.568854 z m 0.174625,-1.16417 h 0.436563 l -0.216959,-1.34408 v 0 z"
       style="fill:#cd3363;stroke-width:0.264583"
       id="path240" />
    <polygon
       points="559.16,28.95 557.19,28.95 557.19,27.18 563.16,27.18 563.16,28.95 561.19,28.95 561.19,39.02 559.16,39.02 "
       style="fill:#cd3363"
       id="polygon242"
       transform="matrix(0.26458333,0,0,0.26458333,-62.240548,128.91392)" />
    <path
       d="m 83.753888,139.23267 h -0.529167 v -3.12738 h 0.754062 a 0.97895832,0.97895832 0 0 1 0.67998,0.21167 0.91016666,0.91016666 0 0 1 0.235479,0.71173 1.476375,1.476375 0 0 1 -0.02646,0.32544 0.72495832,0.72495832 0 0 1 -0.08731,0.22754 0.52916666,0.52916666 0 0 1 -0.264583,0.23812 l 0.449791,1.41288 h -0.547687 l -0.381,-1.29646 a 1.0265833,1.0265833 0 0 1 -0.127,0 H 83.75918 Z m 0,-1.72773 h 0.1905 a 0.63235416,0.63235416 0 0 0 0.185208,-0.0212 0.23283333,0.23283333 0 0 0 0.121708,-0.0794 0.34660416,0.34660416 0 0 0 0.06879,-0.14817 0.98160415,0.98160415 0 0 0 0.02646,-0.23283 0.59531249,0.59531249 0 0 0 -0.08731,-0.37836 0.396875,0.396875 0 0 0 -0.306917,-0.10318 H 83.75389 Z"
       style="fill:#cd3363;stroke-width:0.264583"
       id="path244" />
    <polygon
       points="545.44,24.38 542.81,16.88 542.77,16.88 542.77,24.38 540.91,24.38 540.91,12.37 542.82,12.37 545.34,19.24 545.37,19.24 545.37,12.37 547.23,12.37 547.23,24.38 "
       style="fill:#576164"
       id="polygon246"
       transform="matrix(0.26458333,0,0,0.26458333,-62.240548,128.91392)" />
    <polygon
       points="550.98,19.06 550.98,22.58 554.67,22.58 554.67,24.38 548.92,24.38 548.92,12.37 554.44,12.37 554.44,14.17 550.98,14.17 550.98,17.26 553.64,17.26 553.64,19.06 "
       style="fill:#576164"
       id="polygon248"
       transform="matrix(0.26458333,0,0,0.26458333,-62.240548,128.91392)" />
    <path
       d="m 84.88895,132.18682 h 0.545042 v 2.39977 c 0,0.23018 0.09525,0.3466 0.288396,0.3466 0.193145,0 0.291041,-0.11377 0.291041,-0.3466 v -2.39977 h 0.545042 v 2.38125 a 0.84137499,0.84137499 0 0 1 -0.22225,0.6297 0.98689582,0.98689582 0 0 1 -1.227667,0 0.85195832,0.85195832 0 0 1 -0.219604,-0.6297 z"
       style="fill:#576164;stroke-width:0.264583"
       id="path250" />
    <polygon
       points="519.95,12.36 538.1,12.36 538.1,13.7 521.32,13.7 521.32,39.01 519.95,39.02 "
       style="fill:#bec5c9"
       id="polygon252"
       transform="matrix(0.26458333,0,0,0.26458333,-62.240548,128.91392)" />
    <polygon
       points="519.95,56.59 565.31,56.59 565.31,12.36 566.71,12.36 566.71,58 519.95,58 "
       style="fill:#bec5c9"
       id="polygon254"
       transform="matrix(0.26458333,0,0,0.26458333,-62.240548,128.91392)" />
  </g>
</svg>
