<?xml version="1.0" encoding="UTF-8" standalone="no"?>
<!-- Created with Inkscape (http://www.inkscape.org/) -->

<svg
   width="30.462799mm"
   height="13.424958mm"
   viewBox="0 0 30.462799 13.424958"
   version="1.1"
   id="svg487"
   inkscape:version="1.1 (ce6663b3b7, 2021-05-25)"
   sodipodi:docname="neustart-kultur.svg"
   xmlns:inkscape="http://www.inkscape.org/namespaces/inkscape"
   xmlns:sodipodi="http://sodipodi.sourceforge.net/DTD/sodipodi-0.dtd"
   xmlns="http://www.w3.org/2000/svg"
   xmlns:svg="http://www.w3.org/2000/svg">
  <sodipodi:namedview
     id="namedview489"
     pagecolor="#ffffff"
     bordercolor="#666666"
     borderopacity="1.0"
     inkscape:pageshadow="2"
     inkscape:pageopacity="0.0"
     inkscape:pagecheckerboard="0"
     inkscape:document-units="mm"
     showgrid="false"
     fit-margin-top="0"
     fit-margin-left="0"
     fit-margin-right="0"
     fit-margin-bottom="0"
     inkscape:zoom="5.9722783"
     inkscape:cx="55.673896"
     inkscape:cy="16.492868"
     inkscape:window-width="1920"
     inkscape:window-height="1016"
     inkscape:window-x="0"
     inkscape:window-y="27"
     inkscape:window-maximized="1"
     inkscape:current-layer="layer1" />
  <defs
     id="defs484" />
  <g
     inkscape:label="Layer 1"
     inkscape:groupmode="layer"
     id="layer1"
     transform="translate(-41.829458,-120.16819)">
    <g
       id="Ebene_2-2"
       data-name="Ebene 2"
       transform="matrix(0.26458333,0,0,0.26458333,-52.251082,116.9244)">
      <g
         id="Ebene_1-2-2"
         data-name="Ebene 1-2">
        <polygon
           points="355.58,12.26 355.58,35.49 394.15,12.26 "
           style="fill:#666666"
           id="polygon4" />
        <path
           d="m 400.07,24.32 v 3.83 h -0.48 v -3.83 z m 2.12,0 -1.54,1.82 1.68,2.05 h -0.65 l -1.57,-2.05 1.53,-1.82 z"
           style="fill:#0083e6"
           id="path6" />
        <path
           d="m 403.21,25.45 v 1.64 a 1.46,1.46 0 0 0 0.07,0.55 0.57,0.57 0 0 0 0.44,0.22 0.65,0.65 0 0 0 0.55,-0.29 1.54,1.54 0 0 0 0.11,-0.55 v -1.53 h 0.47 v 1.9 a 2.21,2.21 0 0 0 0.08,0.84 h -0.4 a 1.23,1.23 0 0 1 -0.08,-0.37 0.8,0.8 0 0 1 -0.73,0.44 0.91,0.91 0 0 1 -0.8,-0.44 1.62,1.62 0 0 1 -0.15,-0.73 v -1.64 h 0.44 z"
           style="fill:#0083e6"
           id="path8" />
        <path
           d="m 406.21,24.32 v 3.83 h -0.48 v -3.83 z"
           style="fill:#0083e6"
           id="path10" />
        <path
           d="m 408.25,25.45 v 0.37 h -0.66 v 1.31 0.26 c 0,0.32 0.07,0.43 0.29,0.43 a 1.19,1.19 0 0 0 0.4,-0.07 v 0.4 a 1.09,1.09 0 0 1 -0.51,0.11 0.61,0.61 0 0 1 -0.58,-0.25 0.64,0.64 0 0 1 -0.08,-0.44 v -0.4 -1.32 h -0.4 v -0.36 h 0.4 v -0.81 h 0.44 v 0.81 h 0.69 z"
           style="fill:#0083e6"
           id="path12" />
        <path
           d="m 409.31,25.45 v 1.64 a 0.73,0.73 0 0 0 0.11,0.55 0.56,0.56 0 0 0 0.44,0.22 0.65,0.65 0 0 0 0.55,-0.29 1.54,1.54 0 0 0 0.11,-0.55 V 25.49 H 411 v 1.9 a 2.2,2.2 0 0 0 0.07,0.84 h -0.43 a 1.23,1.23 0 0 1 -0.08,-0.37 0.8,0.8 0 0 1 -0.73,0.44 0.91,0.91 0 0 1 -0.8,-0.44 1.62,1.62 0 0 1 -0.15,-0.73 v -1.64 h 0.44 z"
           style="fill:#0083e6"
           id="path14" />
        <path
           d="m 412.23,25.45 a 1.64,1.64 0 0 1 0,0.44 V 26 c 0.22,-0.43 0.44,-0.65 0.73,-0.65 a 1,1 0 0 1 0.33,0.07 v 0.47 a 0.64,0.64 0 0 0 -0.37,-0.1 0.59,0.59 0 0 0 -0.51,0.4 2.43,2.43 0 0 0 -0.11,0.73 v 1.24 h -0.51 v -2 a 4.41,4.41 0 0 0 0,-0.73 z"
           style="fill:#0083e6"
           id="path16" />
        <path
           d="m 415.52,25.45 v 0.37 l -1.5,2 h 1.5 v 0.4 h -2 v -0.37 l 1.5,-2 h -1.39 v -0.4 z"
           style="fill:#0083e6"
           id="path18" />
        <path
           d="m 416.36,26.87 c 0,0.63 0.29,0.95 0.77,0.95 a 0.61,0.61 0 0 0 0.62,-0.4 h 0.44 a 1,1 0 0 1 -1.06,0.73 c -0.77,0 -1.24,-0.55 -1.24,-1.43 0,-0.88 0.47,-1.46 1.2,-1.46 0.73,0 1.13,0.55 1.13,1.43 v 0.14 z m 1.39,-0.36 c 0,-0.51 -0.29,-0.8 -0.66,-0.8 -0.37,0 -0.62,0.25 -0.69,0.8 z"
           style="fill:#0083e6"
           id="path20" />
        <path
           d="m 419.28,25.45 a 1.24,1.24 0 0 1 0.08,0.4 1,1 0 0 1 0.84,-0.47 0.82,0.82 0 0 1 0.73,0.33 1,1 0 0 1 0.14,0.65 v 1.83 h -0.47 v -1.53 a 1.25,1.25 0 0 0 -0.08,-0.63 0.43,0.43 0 0 0 -0.47,-0.25 0.6,0.6 0 0 0 -0.55,0.33 0.83,0.83 0 0 0 -0.11,0.58 v 1.5 h -0.47 v -2 a 1.6,1.6 0 0 0 -0.08,-0.73 z"
           style="fill:#0083e6"
           id="path22" />
        <path
           d="m 423.12,25.45 v 0.37 h -0.62 v 1.31 0.26 c 0,0.32 0.07,0.43 0.29,0.43 a 1.19,1.19 0 0 0 0.4,-0.07 v 0.4 a 1,1 0 0 1 -0.51,0.11 0.61,0.61 0 0 1 -0.58,-0.25 0.64,0.64 0 0 1 -0.07,-0.44 v -0.4 -1.32 h -0.4 v -0.36 h 0.4 v -0.81 h 0.44 v 0.81 z"
           style="fill:#0083e6"
           id="path24" />
        <path
           d="m 424.14,25.45 a 1.64,1.64 0 0 1 0,0.44 V 26 c 0.22,-0.43 0.44,-0.65 0.73,-0.65 a 1,1 0 0 1 0.33,0.07 v 0.47 a 0.64,0.64 0 0 0 -0.37,-0.1 0.59,0.59 0 0 0 -0.51,0.4 2.43,2.43 0 0 0 -0.11,0.73 v 1.24 h -0.47 v -2 a 4.41,4.41 0 0 0 0,-0.73 z"
           style="fill:#0083e6"
           id="path26" />
        <path
           d="m 426,26.87 c 0,0.63 0.29,0.95 0.76,0.95 a 0.65,0.65 0 0 0 0.62,-0.4 h 0.44 a 1,1 0 0 1 -1.06,0.73 1.27,1.27 0 0 1 -1.24,-1.43 c 0,-0.87 0.48,-1.46 1.21,-1.46 0.73,0 1.13,0.55 1.13,1.43 v 0.14 z m 1.38,-0.36 c 0,-0.51 -0.29,-0.8 -0.65,-0.8 -0.36,0 -0.62,0.25 -0.7,0.8 z"
           style="fill:#0083e6"
           id="path28" />
        <path
           d="m 428.85,25.45 a 1.24,1.24 0 0 1 0.08,0.4 1,1 0 0 1 0.84,-0.47 0.82,0.82 0 0 1 0.73,0.33 1,1 0 0 1 0.14,0.65 v 1.83 h -0.47 v -1.53 a 1.25,1.25 0 0 0 -0.08,-0.63 0.41,0.41 0 0 0 -0.47,-0.25 0.6,0.6 0 0 0 -0.55,0.33 0.83,0.83 0 0 0 -0.11,0.58 v 1.5 h -0.47 v -2 a 2.28,2.28 0 0 0 -0.08,-0.73 z"
           style="fill:#0083e6"
           id="path30" />
        <path
           d="m 400.07,30.42 v 3.39 h 1.64 v 0.44 h -2.15 v -3.83 z"
           style="fill:#0083e6"
           id="path32" />
        <path
           d="m 402.81,30.71 a 0.36,0.36 0 0 1 -0.29,0.33 v 0 a 0.33,0.33 0 0 1 -0.33,-0.29 v 0 a 0.33,0.33 0 0 1 0.29,-0.33 v 0 a 0.3,0.3 0 0 1 0.37,0.33 z m -0.07,0.84 v 2.74 h -0.48 v -2.74 z"
           style="fill:#0083e6"
           id="path34" />
        <path
           d="m 404.82,31.55 v 0.37 h -0.62 v 1.31 0.26 c 0,0.32 0.07,0.43 0.29,0.43 a 1.19,1.19 0 0 0 0.4,-0.07 v 0.4 a 1,1 0 0 1 -0.51,0.11 0.61,0.61 0 0 1 -0.58,-0.25 0.64,0.64 0 0 1 -0.07,-0.44 v -0.4 -1.32 h -0.4 v -0.36 h 0.4 v -0.81 h 0.44 v 0.81 z"
           style="fill:#0083e6"
           id="path36" />
        <path
           d="m 405.77,33 c 0,0.63 0.29,1 0.76,1 a 0.68,0.68 0 0 0 0.63,-0.4 h 0.43 a 1,1 0 0 1 -1.06,0.73 c -0.76,0 -1.24,-0.55 -1.24,-1.43 0,-0.88 0.48,-1.46 1.21,-1.46 0.73,0 1.13,0.55 1.13,1.43 v 0.11 z m 1.39,-0.36 c 0,-0.51 -0.3,-0.8 -0.66,-0.8 -0.36,0 -0.62,0.25 -0.7,0.8 z"
           style="fill:#0083e6"
           id="path38" />
        <path
           d="m 408.69,31.55 a 1,1 0 0 1 0,0.44 v 0.14 c 0.22,-0.43 0.43,-0.65 0.73,-0.65 a 1,1 0 0 1 0.33,0.07 V 32 a 0.78,0.78 0 0 0 -0.41,-0.11 0.66,0.66 0 0 0 -0.51,0.4 2.48,2.48 0 0 0 -0.11,0.73 v 1.24 h -0.47 v -2 a 4.47,4.47 0 0 0 0,-0.73 z"
           style="fill:#0083e6"
           id="path40" />
        <path
           d="m 410.15,32.28 c 0.07,-0.55 0.44,-0.8 1.06,-0.8 a 0.86,0.86 0 0 1 0.88,0.44 1.2,1.2 0 0 1 0.07,0.62 v 1 a 1.49,1.49 0 0 0 0.07,0.69 h -0.4 a 1.15,1.15 0 0 1 -0.07,-0.36 0.89,0.89 0 0 1 -0.81,0.44 0.76,0.76 0 0 1 -0.87,-0.7 V 33.5 a 0.9,0.9 0 0 1 0.62,-0.84 8,8 0 0 1 1,-0.25 v -0.08 c 0,-0.4 -0.14,-0.54 -0.51,-0.54 -0.37,0 -0.51,0.14 -0.58,0.43 z m 1.57,0.55 c -0.88,0.14 -1.17,0.33 -1.17,0.69 A 0.45,0.45 0 0 0 411,34 v 0 a 0.78,0.78 0 0 0 0.59,-0.29 1.59,1.59 0 0 0 0.11,-0.59 v -0.25 z"
           style="fill:#0083e6"
           id="path42" />
        <path
           d="m 414.24,31.55 v 0.37 h -0.62 v 1.31 0.26 c 0,0.32 0.08,0.43 0.3,0.43 a 1.24,1.24 0 0 0 0.4,-0.07 v 0.4 a 1.09,1.09 0 0 1 -0.51,0.11 0.56,0.56 0 0 1 -0.66,-0.69 v -0.4 -1.32 h -0.41 v -0.36 h 0.41 v -0.81 h 0.43 v 0.81 h 0.66 z"
           style="fill:#0083e6"
           id="path44" />
        <path
           d="m 415.3,31.55 v 1.64 a 1.46,1.46 0 0 0 0.07,0.55 0.57,0.57 0 0 0 0.44,0.22 0.65,0.65 0 0 0 0.55,-0.29 1,1 0 0 0 0.11,-0.55 v -1.53 h 0.44 v 1.86 a 2.18,2.18 0 0 0 0.07,0.84 h -0.4 a 0.68,0.68 0 0 1 0,-0.37 0.79,0.79 0 0 1 -0.73,0.44 0.89,0.89 0 0 1 -0.8,-0.44 1.62,1.62 0 0 1 -0.15,-0.73 v -1.64 z"
           style="fill:#0083e6"
           id="path46" />
        <path
           d="m 418.19,31.55 a 2.17,2.17 0 0 1 0,0.44 v 0.14 c 0.22,-0.43 0.44,-0.65 0.73,-0.65 a 1,1 0 0 1 0.33,0.07 V 32 a 0.64,0.64 0 0 0 -0.36,-0.11 0.59,0.59 0 0 0 -0.51,0.4 2.19,2.19 0 0 0 -0.11,0.73 v 1.24 h -0.48 v -2 a 4.47,4.47 0 0 0 0,-0.73 z"
           style="fill:#0083e6"
           id="path48" />
        <path
           d="m 420.2,30.42 v 1.46 a 1,1 0 0 1 1.53,0 c 0.11,0.15 0.15,0.33 0.15,0.88 v 1.57 h -0.48 v -1.57 a 1.25,1.25 0 0 0 -0.07,-0.63 0.42,0.42 0 0 0 -0.48,-0.25 0.58,0.58 0 0 0 -0.54,0.33 0.81,0.81 0 0 0 -0.11,0.58 v 1.46 h -0.48 v -3.83 z"
           style="fill:#0083e6"
           id="path50" />
        <path
           d="m 422.61,32.28 c 0.07,-0.55 0.43,-0.8 1.06,-0.8 a 0.85,0.85 0 0 1 0.87,0.44 1.63,1.63 0 0 1 0.08,0.62 v 1 a 1.49,1.49 0 0 0 0.07,0.69 h -0.44 a 1.15,1.15 0 0 1 -0.07,-0.36 0.84,0.84 0 0 1 -0.81,0.44 0.76,0.76 0 0 1 -0.87,-0.7 V 33.5 a 0.86,0.86 0 0 1 0.62,-0.84 9.47,9.47 0 0 1 1,-0.25 v -0.08 c 0,-0.4 -0.15,-0.54 -0.51,-0.54 a 0.51,0.51 0 0 0 -0.59,0.43 z m 0.87,-1.57 a 0.33,0.33 0 0 1 -0.29,0.37 0.33,0.33 0 0 1 -0.36,-0.3 v -0.07 a 0.35,0.35 0 0 1 0.36,-0.29 0.33,0.33 0 0 1 0.29,0.29 z m 0.7,2.12 c -0.88,0.14 -1.17,0.33 -1.17,0.69 a 0.48,0.48 0 0 0 0.44,0.48 h 0.07 a 0.73,0.73 0 0 0 0.58,-0.3 1.36,1.36 0 0 0 0.11,-0.58 z m 0.29,-2.12 a 0.33185087,0.33185087 0 1 1 -0.66,0.07 v -0.07 a 0.33,0.33 0 0 1 0.29,-0.33 v 0 a 0.34,0.34 0 0 1 0.37,0.33 z"
           style="fill:#0083e6"
           id="path52" />
        <path
           d="m 425.89,31.55 v 1.64 a 1.29,1.29 0 0 0 0.08,0.55 0.56,0.56 0 0 0 0.44,0.22 0.65,0.65 0 0 0 0.54,-0.29 1.35,1.35 0 0 0 0.11,-0.55 v -1.53 h 0.48 v 1.86 a 2.18,2.18 0 0 0 0.07,0.84 h -0.44 a 1.61,1.61 0 0 1 -0.07,-0.37 0.8,0.8 0 0 1 -0.73,0.44 0.89,0.89 0 0 1 -0.8,-0.44 1.21,1.21 0 0 1 -0.11,-0.73 v -1.64 z"
           style="fill:#0083e6"
           id="path54" />
        <path
           d="m 429.8,32.32 a 0.48,0.48 0 0 0 -0.47,-0.48 h -0.08 c -0.29,0 -0.51,0.15 -0.51,0.4 0,0.25 0.11,0.3 0.66,0.44 a 1.51,1.51 0 0 1 0.73,0.33 0.61,0.61 0 0 1 0.15,0.48 c 0,0.54 -0.4,0.84 -1,0.84 -0.6,0 -1.05,-0.33 -1.05,-0.92 h 0.43 a 0.53,0.53 0 0 0 0.51,0.55 h 0.11 c 0.33,0 0.55,-0.18 0.55,-0.44 A 0.32,0.32 0 0 0 429.65,33.23 2.83,2.83 0 0 0 429,33 c -0.55,-0.18 -0.73,-0.36 -0.73,-0.77 a 0.85,0.85 0 0 1 1,-0.8 0.88,0.88 0 0 1 1,0.84 z"
           style="fill:#0083e6"
           id="path56" />
        <path
           d="m 431.26,33 c 0,0.63 0.3,1 0.77,1 a 0.66,0.66 0 0 0 0.62,-0.4 h 0.44 a 1,1 0 0 1 -1.06,0.73 c -0.77,0 -1.24,-0.55 -1.24,-1.43 0,-0.88 0.47,-1.46 1.2,-1.46 0.73,0 1.14,0.55 1.14,1.43 v 0.11 z m 1.39,-0.36 c 0,-0.51 -0.29,-0.8 -0.66,-0.8 -0.37,0 -0.62,0.25 -0.69,0.8 z"
           style="fill:#0083e6"
           id="path58" />
        <path
           d="m 434.19,31.55 a 2.17,2.17 0 0 1 0,0.44 v 0.14 c 0.22,-0.43 0.44,-0.65 0.73,-0.65 a 1,1 0 0 1 0.33,0.07 V 32 a 0.64,0.64 0 0 0 -0.36,-0.11 0.67,0.67 0 0 0 -0.52,0.4 2.48,2.48 0 0 0 -0.1,0.73 v 1.24 h -0.48 v -2 a 4.47,4.47 0 0 0 0,-0.73 z"
           style="fill:#0083e6"
           id="path60" />
        <path
           d="m 401.35,37.54 a 0.66,0.66 0 0 0 -0.66,-0.66 h -0.07 a 0.62,0.62 0 0 0 -0.66,0.55 v 0 a 0.48,0.48 0 0 0 0.22,0.36 l 0.66,0.33 a 2.23,2.23 0 0 1 0.84,0.51 1.2,1.2 0 0 1 0.25,0.66 1.13,1.13 0 0 1 -1.28,1.1 1.25,1.25 0 0 1 -1.09,-0.48 1.2,1.2 0 0 1 -0.26,-0.8 h 0.48 a 0.78,0.78 0 0 0 0.73,0.84 h 0.11 a 0.68,0.68 0 0 0 0.76,-0.62 0.51,0.51 0 0 0 -0.22,-0.44 3,3 0 0 0 -0.62,-0.33 6.63,6.63 0 0 1 -0.8,-0.4 0.92,0.92 0 0 1 -0.33,-0.73 1.08,1.08 0 0 1 1.17,-1 1.17,1.17 0 0 1 1,0.44 1,1 0 0 1 0.18,0.66 z"
           style="fill:#0083e6"
           id="path62" />
        <path
           d="m 404.93,39 a 1.28,1.28 0 0 1 -1.21,1.43 1.33,1.33 0 0 1 -1.24,-1.43 1.26,1.26 0 0 1 1.24,-1.42 1.29,1.29 0 0 1 1.21,1.42 z m -2,0 c 0,0.66 0.3,1.06 0.74,1.06 0.44,0 0.73,-0.44 0.73,-1.06 0,-0.62 -0.3,-1.06 -0.73,-1.06 -0.43,0 -0.67,0.44 -0.67,1.06 z"
           style="fill:#0083e6"
           id="path64" />
        <path
           d="M 407.37,37.61 V 38 l -1.53,2 h 1.5 v 0.4 h -2 V 40 l 1.5,-2 h -1.44 v -0.4 h 2 z"
           style="fill:#0083e6"
           id="path66" />
        <path
           d="m 408.47,36.77 a 0.34,0.34 0 0 1 -0.29,0.33 v 0 a 0.33,0.33 0 0 1 -0.33,-0.29 v 0 a 0.33,0.33 0 0 1 0.29,-0.33 v 0 a 0.34,0.34 0 0 1 0.37,0.33 z m -0.07,0.84 v 2.74 h -0.48 v -2.74 z"
           style="fill:#0083e6"
           id="path68" />
        <path
           d="m 411.5,39 a 1.28,1.28 0 0 1 -1.2,1.43 1.33,1.33 0 0 1 -1.25,-1.43 1.27,1.27 0 0 1 1.25,-1.42 c 0.7,-0.04 1.2,0.58 1.2,1.42 z m -2,0 c 0,0.66 0.29,1.06 0.73,1.06 0.44,0 0.73,-0.44 0.73,-1.06 0,-0.62 -0.29,-1.06 -0.73,-1.06 -0.44,0 -0.73,0.44 -0.73,1.06 z"
           style="fill:#0083e6"
           id="path70" />
        <path
           d="m 412.63,36.52 v 3.87 h -0.47 v -3.87 z m 1.68,1.09 -1.13,1.25 1.21,1.49 h -0.62 l -1.14,-1.46 1.14,-1.24 z"
           style="fill:#0083e6"
           id="path72" />
        <path
           d="m 415.45,37.61 v 1.68 a 1.46,1.46 0 0 0 0.07,0.55 0.56,0.56 0 0 0 0.44,0.22 0.65,0.65 0 0 0 0.55,-0.29 1.54,1.54 0 0 0 0.11,-0.55 v -1.53 h 0.47 v 1.9 a 2.2,2.2 0 0 0 0.07,0.84 h -0.43 a 1.23,1.23 0 0 1 -0.08,-0.37 0.8,0.8 0 0 1 -0.73,0.44 0.88,0.88 0 0 1 -0.8,-0.4 1.65,1.65 0 0 1 -0.15,-0.73 v -1.68 h 0.48 z"
           style="fill:#0083e6"
           id="path74" />
        <path
           d="m 418.41,36.52 v 3.87 h -0.48 v -3.87 z"
           style="fill:#0083e6"
           id="path76" />
        <path
           d="M 420.49,37.61 V 38 h -0.62 v 1.31 0.26 c 0,0.33 0.07,0.44 0.29,0.44 a 1.18,1.18 0 0 0 0.4,-0.08 v 0.41 a 1.16,1.16 0 0 1 -0.51,0.11 0.64,0.64 0 0 1 -0.58,-0.26 0.63,0.63 0 0 1 -0.07,-0.44 v -0.4 -1.31 H 419 v -0.37 h 0.4 v -0.8 h 0.44 v 0.8 h 0.66 z"
           style="fill:#0083e6"
           id="path78" />
        <path
           d="m 421.55,37.61 v 1.68 a 0.73,0.73 0 0 0 0.11,0.55 0.55,0.55 0 0 0 0.43,0.22 0.65,0.65 0 0 0 0.55,-0.29 1.35,1.35 0 0 0 0.11,-0.55 v -1.53 h 0.48 v 1.9 a 2.2,2.2 0 0 0 0.07,0.84 h -0.44 a 1.61,1.61 0 0 1 -0.07,-0.37 0.81,0.81 0 0 1 -0.73,0.44 0.86,0.86 0 0 1 -0.81,-0.4 1.79,1.79 0 0 1 -0.14,-0.73 v -1.68 h 0.44 z"
           style="fill:#0083e6"
           id="path80" />
        <path
           d="m 424.47,37.61 a 1.68,1.68 0 0 1 0,0.44 v 0.15 c 0.21,-0.44 0.43,-0.66 0.73,-0.66 a 1.3,1.3 0 0 1 0.33,0.07 v 0.48 a 0.65,0.65 0 0 0 -0.37,-0.11 0.59,0.59 0 0 0 -0.51,0.4 2.48,2.48 0 0 0 -0.11,0.73 v 1.24 h -0.48 v -2 a 5.94,5.94 0 0 0 0,-0.73 z"
           style="fill:#0083e6"
           id="path82" />
        <path
           d="m 426.3,39.07 c 0,0.63 0.29,1 0.76,1 a 0.63,0.63 0 0 0 0.62,-0.36 h 0.44 a 1,1 0 0 1 -1.06,0.73 1.27,1.27 0 0 1 -1.24,-1.44 c 0,-0.88 0.48,-1.46 1.21,-1.46 0.73,0 1.13,0.55 1.13,1.42 v 0.11 z m 1.38,-0.36 c 0,-0.51 -0.29,-0.8 -0.65,-0.8 -0.36,0 -0.62,0.25 -0.7,0.8 z"
           style="fill:#0083e6"
           id="path84" />
        <path
           d="m 429.29,36.52 v 3.87 h -0.47 v -3.87 z"
           style="fill:#0083e6"
           id="path86" />
        <path
           d="m 430.61,36.52 v 3.87 h -0.48 v -3.87 z"
           style="fill:#0083e6"
           id="path88" />
        <path
           d="m 431.74,39.07 c 0,0.63 0.29,1 0.77,1 a 0.64,0.64 0 0 0 0.62,-0.36 h 0.43 a 1,1 0 0 1 -1.05,0.73 c -0.77,0 -1.25,-0.55 -1.25,-1.43 0,-0.88 0.48,-1.46 1.21,-1.46 0.73,0 1.13,0.55 1.13,1.42 v 0.11 z m 1.39,-0.36 c 0,-0.51 -0.3,-0.8 -0.66,-0.8 -0.36,0 -0.62,0.25 -0.7,0.8 z"
           style="fill:#0083e6"
           id="path90" />
        <path
           d="m 438,36.52 v 0.33 l -1.93,3.06 H 438 v 0.44 h -2.49 V 40 l 1.9,-3 h -1.79 v -0.4 z"
           style="fill:#0083e6"
           id="path92" />
        <path
           d="m 438.86,39.07 c 0,0.63 0.29,1 0.77,1 a 0.64,0.64 0 0 0 0.62,-0.36 h 0.44 a 1,1 0 0 1 -1.06,0.73 c -0.77,0 -1.24,-0.55 -1.24,-1.43 0,-0.88 0.47,-1.46 1.2,-1.46 0.73,0 1.13,0.55 1.13,1.42 v 0.11 z m 1.39,-0.36 c 0,-0.51 -0.29,-0.8 -0.66,-0.8 -0.37,0 -0.62,0.25 -0.69,0.8 z"
           style="fill:#0083e6"
           id="path94" />
        <path
           d="m 441.78,37.61 a 0.69,0.69 0 0 1 0,0.41 1,1 0 0 1 0.84,-0.48 0.81,0.81 0 0 1 0.73,0.33 1.08,1.08 0 0 1 0.15,0.66 v 1.82 h -0.48 v -1.53 a 1.21,1.21 0 0 0 -0.07,-0.62 0.44,0.44 0 0 0 -0.48,-0.26 0.7,0.7 0 0 0 -0.58,0.33 0.8,0.8 0 0 0 -0.11,0.59 v 1.49 h -0.4 v -2 a 2.31,2.31 0 0 0 -0.08,-0.73 z"
           style="fill:#0083e6"
           id="path96" />
        <path
           d="M 445.58,37.61 V 38 H 445 v 1.31 0.26 c 0,0.33 0.08,0.44 0.3,0.44 a 1.24,1.24 0 0 0 0.4,-0.08 v 0.41 a 1.23,1.23 0 0 1 -0.51,0.11 0.67,0.67 0 0 1 -0.59,-0.26 0.63,0.63 0 0 1 -0.07,-0.44 v -0.4 -1.31 h -0.41 v -0.37 h 0.41 v -0.8 H 445 v 0.8 z"
           style="fill:#0083e6"
           id="path98" />
        <path
           d="m 446.6,37.61 a 1.68,1.68 0 0 1 0,0.44 v 0.15 c 0.22,-0.44 0.44,-0.66 0.73,-0.66 a 1.3,1.3 0 0 1 0.33,0.07 v 0.48 a 0.64,0.64 0 0 0 -0.36,-0.11 0.62,0.62 0 0 0 -0.52,0.4 2.48,2.48 0 0 0 -0.11,0.73 v 1.24 h -0.47 v -2 a 4.47,4.47 0 0 0 0,-0.73 z"
           style="fill:#0083e6"
           id="path100" />
        <path
           d="m 448.43,39.07 c 0,0.63 0.29,1 0.77,1 a 0.64,0.64 0 0 0 0.62,-0.36 h 0.44 A 1,1 0 0 1 449.2,40.44 1.27,1.27 0 0 1 448,39 c 0,-0.88 0.47,-1.46 1.2,-1.46 0.73,0 1.13,0.55 1.13,1.42 v 0.11 z m 1.39,-0.36 c 0,-0.51 -0.29,-0.8 -0.66,-0.8 -0.37,0 -0.62,0.25 -0.69,0.8 z"
           style="fill:#0083e6"
           id="path102" />
        <path
           d="m 451.35,37.61 a 1.24,1.24 0 0 1 0.08,0.41 1,1 0 0 1 0.84,-0.48 0.93,0.93 0 0 1 0.73,0.33 1,1 0 0 1 0.14,0.66 v 1.82 h -0.47 v -1.53 a 1.32,1.32 0 0 0 -0.07,-0.62 0.44,0.44 0 0 0 -0.48,-0.26 0.6,0.6 0 0 0 -0.55,0.33 0.86,0.86 0 0 0 -0.11,0.59 v 1.49 H 451 v -2 a 1.77,1.77 0 0 0 -0.07,-0.73 z"
           style="fill:#0083e6"
           id="path104" />
        <path
           d="m 358.65,14.53 2,3.4 v -3.44 h 0.88 v 4.82 h -0.95 l -2,-3.39 v 3.39 h -0.91 v -4.82 z"
           style="fill:#00dc96"
           id="path106" />
        <path
           d="m 365.51,16.43 v 0.8 h -1.9 v 1.32 h 2.2 v 0.8 h -3.11 v -4.82 h 3 v 0.77 h -2.12 v 1.13 z"
           style="fill:#00dc96"
           id="path108" />
        <path
           d="m 367.41,14.46 v 2.77 a 2,2 0 0 0 0.08,0.8 0.87,0.87 0 0 0 0.91,0.55 0.81,0.81 0 0 0 0.91,-0.65 2.07,2.07 0 0 0 0,-0.7 v -2.77 h 0.91 v 2.77 a 2.38,2.38 0 0 1 -0.18,1.24 2.08,2.08 0 0 1 -3.43,0 2,2 0 0 1 -0.19,-1.24 v -2.77 z"
           style="fill:#00dc96"
           id="path110" />
        <polygon
           points="355.58,24.43 355.58,47.62 394.15,24.43 "
           style="fill:#0083e6"
           id="polygon112" />
        <path
           d="m 359.89,27.64 a 0.71,0.71 0 0 0 -0.77,-0.69 v 0 c -0.41,0 -0.7,0.22 -0.7,0.51 a 0.43,0.43 0 0 0 0.26,0.36 l 0.8,0.33 c 0.84,0.33 0.95,0.4 1.13,0.62 a 1.15,1.15 0 0 1 0.33,0.88 1.51,1.51 0 0 1 -1.72,1.5 1.68,1.68 0 0 1 -1.89,-1.72 h 0.87 a 1,1 0 0 0 0.88,0.95 h 0.11 c 0.44,0 0.77,-0.22 0.77,-0.51 a 0.54,0.54 0 0 0 -0.33,-0.48 7.07,7.07 0 0 0 -0.84,-0.36 2.75,2.75 0 0 1 -1,-0.58 1.1,1.1 0 0 1 -0.33,-0.88 1.48,1.48 0 0 1 1.65,-1.43 1.68,1.68 0 0 1 1.38,0.62 1.43,1.43 0 0 1 0.26,0.88 z"
           style="fill:#ffffff"
           id="path114" />
        <path
           d="M 364.75,26.18 V 27 h -1.28 v 4 h -0.91 v -4 h -1.28 v -0.76 z"
           style="fill:#ffffff"
           id="path116" />
        <path
           d="m 367.05,26.18 1.68,4.82 h -1 l -0.29,-1 h -1.72 l -0.33,1 h -0.95 l 1.61,-4.82 z m -0.48,1.06 -0.62,2 h 1.24 z"
           style="fill:#ffffff"
           id="path118" />
        <path
           d="m 370.55,26.14 a 2.92,2.92 0 0 1 1.5,0.22 1.48,1.48 0 0 1 0.48,2.05 1.37,1.37 0 0 1 -0.62,0.55 L 373,31 h -1.09 l -1,-1.83 h -0.66 V 31 h -0.91 v -4.83 z m 0.08,2.2 a 2,2 0 0 0 0.8,-0.08 0.63,0.63 0 0 0 0.4,-0.66 0.6,0.6 0 0 0 -0.33,-0.54 c -0.18,-0.11 -0.32,-0.11 -0.95,-0.11 h -0.29 v 1.39 z"
           style="fill:#ffffff"
           id="path120" />
        <path
           d="M 376.62,26.14 V 27 h -1.28 v 4 h -0.91 v -4 h -1.28 v -0.81 z"
           style="fill:#ffffff"
           id="path122" />
        <polygon
           points="355.58,36.63 355.58,63 394.15,36.63 "
           style="fill:#00dc96"
           id="polygon124" />
        <path
           d="m 358.57,38.42 v 4.82 h -0.91 v -4.82 z m 2.85,0 -1.79,2.23 1.94,2.59 h -1.17 l -1.79,-2.56 1.75,-2.26 z"
           style="fill:#ffffff"
           id="path126" />
        <path
           d="m 363,38.42 v 2.77 a 2,2 0 0 0 0.07,0.81 0.89,0.89 0 0 0 0.92,0.54 0.81,0.81 0 0 0 0.91,-0.65 2.36,2.36 0 0 0 0,-0.7 v -2.77 h 0.91 v 2.77 a 2.44,2.44 0 0 1 -0.18,1.25 1.72,1.72 0 0 1 -1.72,0.87 1.79,1.79 0 0 1 -1.72,-0.87 2.16,2.16 0 0 1 -0.18,-1.25 v -2.77 z"
           style="fill:#ffffff"
           id="path128" />
        <path
           d="m 368,38.38 v 4 h 2.08 v 0.8 h -3 v -4.82 z"
           style="fill:#ffffff"
           id="path130" />
        <path
           d="m 373.77,38.34 v 0.81 h -1.28 v 4 h -0.91 v -4 h -1.28 v -0.77 z"
           style="fill:#ffffff"
           id="path132" />
        <path
           d="m 375.3,38.34 v 2.78 a 2,2 0 0 0 0.08,0.8 0.87,0.87 0 0 0 0.91,0.55 0.81,0.81 0 0 0 0.91,-0.66 2,2 0 0 0 0,-0.69 v -2.78 h 0.91 v 2.78 a 2.38,2.38 0 0 1 -0.18,1.24 2.11,2.11 0 0 1 -3.43,0 2,2 0 0 1 -0.19,-1.24 v -2.78 z"
           style="fill:#ffffff"
           id="path134" />
        <path
           d="m 380.49,38.31 a 2.82,2.82 0 0 1 1.5,0.22 1.48,1.48 0 0 1 0.51,2 1.34,1.34 0 0 1 -0.66,0.58 l 1.1,2 h -1.1 l -1,-1.83 h -0.66 v 1.83 h -0.88 v -4.77 z m 0.07,2.19 a 2,2 0 0 0 0.81,-0.07 0.65,0.65 0 0 0 0.4,-0.66 0.6,0.6 0 0 0 -0.33,-0.55 c -0.18,-0.11 -0.33,-0.11 -0.95,-0.11 h -0.26 v 1.39 z"
           style="fill:#ffffff"
           id="path136" />
      </g>
    </g>
    <path
       d="m 54.169625,122.08377 h -0.105833 a 0.21960416,0.21960416 0 0 0 -0.230188,-0.20372 c -0.185208,0 -0.301625,0.16404 -0.301625,0.43391 0,0.26988 0.116417,0.43127 0.314854,0.43127 0.142875,0 0.230188,-0.0979 0.251354,-0.26458 h 0.105834 c -0.02117,0.23283 -0.145521,0.36777 -0.357188,0.36777 -0.264583,0 -0.425979,-0.20373 -0.425979,-0.52917 0,-0.32543 0.164042,-0.52916 0.425979,-0.52916 a 0.3095625,0.3095625 0 0 1 0.322792,0.29368 z"
       style="fill:#0083e6;stroke-width:0.264583"
       id="path140" />
    <path
       d="m 54.325729,122.45948 c 0,-0.23283 0.134938,-0.38629 0.3175,-0.38629 0.182563,0 0.320146,0.15346 0.320146,0.38629 0,0.23284 -0.134938,0.38629 -0.320146,0.38629 -0.185208,0 -0.3175,-0.15345 -0.3175,-0.38629 z m 0.116417,0 c 0,0.17463 0.08731,0.29104 0.211666,0.29104 0.124355,0 0.211667,-0.11641 0.211667,-0.29104 0,-0.17462 -0.08467,-0.29104 -0.211667,-0.29104 -0.127,0 -0.211666,0.11642 -0.211666,0.29104 z"
       style="fill:#0083e6;stroke-width:0.264583"
       id="path142" />
    <path
       d="m 55.138,122.09171 h 0.105833 a 0.43391666,0.43391666 0 0 1 0,0.11642 v 0.0476 c 0.04762,-0.12435 0.113771,-0.17198 0.193146,-0.17198 a 0.24341666,0.24341666 0 0 1 0.08467,0.0185 v 0.11377 a 0.26458333,0.26458333 0 0 0 -0.09525,-0.0291 c -0.05821,0 -0.105834,0.0397 -0.145521,0.11642 a 0.60324999,0.60324999 0 0 0 -0.0291,0.21167 v 0.32808 h -0.08202 v -0.52917 c -0.02381,-0.13494 -0.02381,-0.15346 -0.03175,-0.22225 z"
       style="fill:#0083e6;stroke-width:0.264583"
       id="path144" />
    <path
       d="m 55.601021,122.45948 c 0,-0.23283 0.134937,-0.38629 0.320146,-0.38629 0.185208,0 0.3175,0.15346 0.3175,0.38629 0,0.23284 -0.134938,0.38629 -0.3175,0.38629 -0.182563,0 -0.320146,-0.15345 -0.320146,-0.38629 z m 0.116416,0 c 0,0.17463 0.08731,0.29104 0.211667,0.29104 0.124354,0 0.214313,-0.11641 0.214313,-0.29104 0,-0.17462 -0.08731,-0.29104 -0.214313,-0.29104 -0.127,0 -0.211667,0.11642 -0.211667,0.29104 z"
       style="fill:#0083e6;stroke-width:0.264583"
       id="path146" />
    <path
       d="m 56.413292,122.09171 h 0.105833 a 0.333375,0.333375 0 0 1 0,0.10584 0.238125,0.238125 0 0 1 0.22225,-0.12436 q 0.230187,0 0.230187,0.26458 v 0.49213 h -0.105833 v -0.46567 c 0,-0.127 -0.04763,-0.19579 -0.145521,-0.19579 -0.0979,0 -0.193146,0.0873 -0.193146,0.25136 v 0.40745 h -0.116416 v -0.52916 a 1.2991042,1.2991042 0 0 0 0.0026,-0.20638 z"
       style="fill:#0083e6;stroke-width:0.264583"
       id="path148" />
    <path
       d="m 57.302292,122.28486 h -0.105834 a 0.28310416,0.28310416 0 0 1 0.502709,-0.0952 0.64029166,0.64029166 0 0 1 0.01852,0.16404 v 0.26458 a 0.47360416,0.47360416 0 0 0 0.01852,0.19315 h -0.105833 a 0.67733332,0.67733332 0 0 1 -0.01852,-0.0952 0.22489583,0.22489583 0 0 1 -0.214312,0.11377 0.20372916,0.20372916 0 0 1 -0.230188,-0.21167 0.22489583,0.22489583 0 0 1 0.174625,-0.22225 1.285875,1.285875 0 0 1 0.248708,-0.0582 h 0.02117 v -0.0291 c 0,-0.10583 -0.03969,-0.15346 -0.145521,-0.15346 -0.105833,0 -0.153458,0.0609 -0.164041,0.12965 z m 0.309562,0.14552 c -0.243417,0.0476 -0.328083,0.0979 -0.328083,0.19314 a 0.12964583,0.12964583 0 0 0 0.142875,0.127 0.1825625,0.1825625 0 0 0 0.174625,-0.11641 0.47360416,0.47360416 0 0 0 0.01852,-0.13494 v -0.0688 z"
       style="fill:#0083e6;stroke-width:0.264583"
       id="path150" />
    <path
       d="m 57.834104,122.40127 h 0.425979 v 0.0794 h -0.425979 z"
       style="fill:#0083e6;stroke-width:0.264583"
       id="path152" />
    <path
       d="m 58.365917,121.79273 h 0.105833 v 0.40482 a 0.23547916,0.23547916 0 0 1 0.211667,-0.12436 c 0.164041,0 0.280458,0.15346 0.280458,0.38629 0,0.23284 -0.116417,0.38629 -0.298979,0.38629 a 0.21695833,0.21695833 0 0 1 -0.203729,-0.12435 v 0.0238 a 0.3254375,0.3254375 0 0 1 0,0.0873 H 58.34475 a 0.82814582,0.82814582 0 0 0 0,-0.20373 z m 0.309562,0.37571 c -0.116417,0 -0.193146,0.11642 -0.193146,0.29104 0,0.17463 0.07673,0.29104 0.193146,0.29104 0.116417,0 0.193146,-0.11641 0.193146,-0.29104 0,-0.17462 -0.07937,-0.29104 -0.193146,-0.29104 z"
       style="fill:#0083e6;stroke-width:0.264583"
       id="path154" />
    <path
       d="m 59.717937,122.48065 h -0.492125 c 0,0.18521 0.07673,0.26458 0.211667,0.26458 a 0.17991666,0.17991666 0 0 0 0.174625,-0.11641 h 0.09525 a 0.26458333,0.26458333 0 0 1 -0.264583,0.19314 c -0.193146,0 -0.3175,-0.14287 -0.3175,-0.37571 0,-0.23283 0.124354,-0.39687 0.3175,-0.39687 0.193146,0 0.298979,0.14552 0.298979,0.37835 -0.02381,0.0318 -0.02381,0.0529 -0.02381,0.0529 z m -0.105833,-0.0873 c 0,-0.14288 -0.07673,-0.23019 -0.193146,-0.23019 -0.116416,0 -0.174625,0.0767 -0.193146,0.23019 z"
       style="fill:#0083e6;stroke-width:0.264583"
       id="path156" />
    <path
       d="m 60.461417,121.79273 v 0.82021 a 0.48154166,0.48154166 0 0 0 0.02117,0.21431 h -0.108479 a 0.26458333,0.26458333 0 0 1 0,-0.0767 v -0.0291 a 0.21695833,0.21695833 0 0 1 -0.203729,0.12435 c -0.174625,0 -0.288396,-0.14552 -0.288396,-0.3757 0,-0.23019 0.113771,-0.39688 0.288396,-0.39688 a 0.21166666,0.21166666 0 0 1 0.203729,0.12436 v -0.40482 z m -0.29898,0.37571 c -0.116416,0 -0.193145,0.11642 -0.193145,0.29104 0,0.17463 0.07673,0.29104 0.193145,0.29104 0.116417,0 0.193146,-0.11641 0.193146,-0.29104 0,-0.17462 -0.07673,-0.29104 -0.193146,-0.29104 z"
       style="fill:#0083e6;stroke-width:0.264583"
       id="path158" />
    <path
       d="m 60.741875,121.78215 v 0 a 0.07672917,0.07672917 0 0 1 0.07673,0.0794 0.06879167,0.06879167 0 0 1 -0.07673,0.0767 0.0714375,0.0714375 0 0 1 -0.07673,-0.0767 0.08466667,0.08466667 0 0 1 0.07673,-0.0794 z m -0.04763,0.30956 h 0.116417 v 0.73554 H 60.69425 Z"
       style="fill:#0083e6;stroke-width:0.264583"
       id="path160" />
    <path
       d="m 61.014396,122.09171 h 0.105833 a 0.44185416,0.44185416 0 0 1 0,0.10584 0.24341666,0.24341666 0 0 1 0.22225,-0.12436 c 0.156104,0 0.232833,0.0873 0.232833,0.26458 v 0.49213 h -0.105833 v -0.46567 c 0,-0.127 -0.04762,-0.19579 -0.145521,-0.19579 -0.0979,0 -0.193146,0.0873 -0.193146,0.25136 v 0.40745 h -0.105833 v -0.52916 a 0.56885416,0.56885416 0 0 0 -0.01058,-0.20638 z"
       style="fill:#0083e6;stroke-width:0.264583"
       id="path162" />
    <path
       d="m 62.414042,122.09171 v 0.0767 h -0.153459 a 0.2460625,0.2460625 0 0 1 0.06615,0.16669 0.19579166,0.19579166 0 0 1 -0.09525,0.18256 0.40745833,0.40745833 0 0 1 -0.145521,0.0476 c -0.124354,0.0291 -0.153458,0.0397 -0.153458,0.0767 0,0.037 0.01852,0.0397 0.142875,0.0503 0.124354,0.0106 0.214312,0.0291 0.264583,0.0661 a 0.1905,0.1905 0 0 1 0.07673,0.15611 c 0,0.14552 -0.124354,0.23018 -0.328083,0.23018 -0.203729,0 -0.328083,-0.0847 -0.328083,-0.21166 0,-0.127 0.04763,-0.14552 0.153458,-0.18257 -0.05821,-0.0212 -0.07673,-0.0503 -0.07673,-0.0873 0,-0.037 0.03969,-0.0767 0.134937,-0.11641 a 0.21166666,0.21166666 0 0 1 -0.14552,-0.21167 0.2460625,0.2460625 0 0 1 0.264583,-0.25136 0.26458333,0.26458333 0 0 1 0.113771,0.0185 z m -0.346605,0.70644 c -0.134937,0 -0.22225,0.0476 -0.22225,0.12435 0,0.0767 0.09525,0.127 0.230188,0.127 0.134937,0 0.22225,-0.0476 0.22225,-0.127 0,-0.0794 -0.07673,-0.12435 -0.230188,-0.12435 z m 0,-0.62971 a 0.15610416,0.15610416 0 0 0 -0.156104,0.16669 0.15345833,0.15345833 0 0 0 0.156104,0.15346 0.14552083,0.14552083 0 0 0 0.153459,-0.15346 0.1508125,0.1508125 0 0 0 -0.153459,-0.16669 z"
       style="fill:#0083e6;stroke-width:0.264583"
       id="path164" />
    <path
       d="m 62.705083,122.09171 h 0.174625 v 0.0873 h -0.174625 v 0.36778 0.0767 c 0,0.0979 0.01852,0.11642 0.07673,0.11642 a 0.26458333,0.26458333 0 0 0 0.10848,-0.0291 v 0.0979 a 0.35189583,0.35189583 0 0 1 -0.127,0.0265 c -0.116417,0 -0.174625,-0.0476 -0.174625,-0.17198 v -0.11641 -0.36778 h -0.105834 v -0.0873 h 0.116417 v -0.21166 h 0.105833 z"
       style="fill:#0083e6;stroke-width:0.264583"
       id="path166" />
    <path
       d="m 63.5835,122.48065 h -0.502708 c 0,0.18521 0.07673,0.26458 0.214312,0.26458 a 0.17727083,0.17727083 0 0 0 0.171979,-0.11641 h 0.0979 a 0.26458333,0.26458333 0 0 1 -0.264583,0.19314 c -0.193146,0 -0.320146,-0.14287 -0.320146,-0.37571 0,-0.23283 0.127,-0.39687 0.320146,-0.39687 0.193146,0 0.298979,0.14552 0.298979,0.37835 a 0.06614583,0.06614583 0 0 0 -0.01588,0.0529 z m -0.116417,-0.0873 c 0,-0.14288 -0.07673,-0.23019 -0.193146,-0.23019 -0.116416,0 -0.171979,0.0767 -0.193145,0.23019 z"
       style="fill:#0083e6;stroke-width:0.264583"
       id="path168" />
    <path
       d="m 64.289937,122.82725 h -0.124354 v -1.02393 H 64.282 Z"
       style="fill:#0083e6;stroke-width:0.264583"
       id="path170" />
    <path
       d="m 64.512187,122.09171 h 0.105834 a 0.333375,0.333375 0 0 1 0,0.10584 0.238125,0.238125 0 0 1 0.22225,-0.12436 q 0.230187,0 0.230187,0.26458 v 0.49213 h -0.105833 v -0.46567 c 0,-0.127 -0.04762,-0.19579 -0.145521,-0.19579 -0.0979,0 -0.193146,0.0873 -0.193146,0.25136 v 0.40745 h -0.105833 v -0.52916 a 0.56885416,0.56885416 0 0 0 -0.0079,-0.20638 z"
       style="fill:#0083e6;stroke-width:0.264583"
       id="path172" />
    <path
       d="m 65.223917,122.09171 h 0.116416 l 0.203729,0.61913 0.20373,-0.61913 h 0.116416 l -0.264583,0.74348 H 65.4885 Z"
       style="fill:#0083e6;stroke-width:0.264583"
       id="path174" />
    <path
       d="m 66.530958,122.48065 h -0.513291 c 0,0.18521 0.07937,0.26458 0.214312,0.26458 a 0.17727083,0.17727083 0 0 0 0.171979,-0.11641 h 0.0979 a 0.26458333,0.26458333 0 0 1 -0.264583,0.19314 c -0.193146,0 -0.320146,-0.14287 -0.320146,-0.37571 0,-0.23283 0.127,-0.39687 0.320146,-0.39687 0.193146,0 0.309562,0.16669 0.309562,0.39158 a 0.06614583,0.06614583 0 0 0 -0.01588,0.0397 z m -0.116416,-0.0873 c 0,-0.14288 -0.07673,-0.23019 -0.193146,-0.23019 -0.116417,0 -0.171979,0.0767 -0.193146,0.23019 z"
       style="fill:#0083e6;stroke-width:0.264583"
       id="path176" />
    <path
       d="m 67.197708,122.29544 h -0.105833 a 0.13758333,0.13758333 0 0 0 -0.153459,-0.13494 c -0.08731,0 -0.14552,0.0476 -0.14552,0.10584 0,0.0582 0.0291,0.0873 0.174625,0.12435 0.14552,0.037 0.171979,0.0582 0.201083,0.10848 a 0.18785416,0.18785416 0 0 1 0.0291,0.11377 c 0,0.14552 -0.105833,0.23283 -0.264583,0.23283 -0.15875,0 -0.280458,-0.0873 -0.280458,-0.24077 H 66.7585 a 0.15345833,0.15345833 0 0 0 0.174625,0.15346 c 0.0979,0 0.153458,-0.0476 0.153458,-0.12435 0,-0.0767 -0.01852,-0.0873 -0.211667,-0.14552 -0.14552,-0.0476 -0.193145,-0.0979 -0.193145,-0.20373 0,-0.10584 0.105833,-0.20109 0.251354,-0.20109 0.145521,0 0.256646,0.0767 0.264583,0.21167 z"
       style="fill:#0083e6;stroke-width:0.264583"
       id="path178" />
    <path
       d="m 67.525791,122.09171 h 0.174625 v 0.0873 h -0.174625 v 0.36778 0.0767 c 0,0.0979 0.01852,0.11642 0.07673,0.11642 a 0.26458333,0.26458333 0 0 0 0.105833,-0.0291 v 0.0979 a 0.33866666,0.33866666 0 0 1 -0.124354,0.0265 c -0.116417,0 -0.174625,-0.0476 -0.174625,-0.17198 v -0.11641 -0.36778 h -0.108479 v -0.0873 h 0.116416 v -0.21166 h 0.105834 z"
       style="fill:#0083e6;stroke-width:0.264583"
       id="path180" />
    <path
       d="m 67.922666,121.78215 v 0 a 0.07672917,0.07672917 0 0 1 0.07673,0.0794 0.06879167,0.06879167 0 0 1 -0.07673,0.0767 0.0714375,0.0714375 0 0 1 -0.07673,-0.0767 0.07672917,0.07672917 0 0 1 0.07673,-0.0794 z m -0.05292,0.30956 h 0.116416 v 0.73554 H 67.86975 Z"
       style="fill:#0083e6;stroke-width:0.264583"
       id="path182" />
    <path
       d="m 68.359229,122.09171 h 0.171979 v 0.0873 h -0.171979 v 0.36778 0.0767 c 0,0.0979 0.01852,0.11642 0.07673,0.11642 a 0.26458333,0.26458333 0 0 0 0.105833,-0.0291 v 0.0979 a 0.32808333,0.32808333 0 0 1 -0.124354,0.0265 c -0.116416,0 -0.174625,-0.0476 -0.174625,-0.17198 v -0.11641 -0.36778 h -0.108479 v -0.0873 h 0.113771 v -0.21166 h 0.108479 z"
       style="fill:#0083e6;stroke-width:0.264583"
       id="path184" />
    <path
       d="m 68.745521,121.78215 v 0 a 0.07672917,0.07672917 0 0 1 0.07673,0.0794 0.0714375,0.0714375 0 0 1 -0.07673,0.0767 0.06879167,0.06879167 0 0 1 -0.07673,-0.0767 0.08202083,0.08202083 0 0 1 0.07673,-0.0794 z m -0.05027,0.30956 h 0.116416 v 0.73554 H 68.69525 Z"
       style="fill:#0083e6;stroke-width:0.264583"
       id="path186" />
    <path
       d="m 68.996875,122.45948 c 0,-0.23283 0.134937,-0.38629 0.3175,-0.38629 0.182562,0 0.320146,0.15346 0.320146,0.38629 0,0.23284 -0.134938,0.38629 -0.320146,0.38629 -0.185209,0 -0.3175,-0.15345 -0.3175,-0.38629 z m 0.105833,0 c 0,0.17463 0.08731,0.29104 0.211667,0.29104 0.124354,0 0.214312,-0.11641 0.214312,-0.29104 0,-0.17462 -0.08731,-0.29104 -0.214312,-0.29104 -0.127,0 -0.211667,0.11642 -0.211667,0.29104 z"
       style="fill:#0083e6;stroke-width:0.264583"
       id="path188" />
    <path
       d="m 69.798562,122.09171 h 0.105834 a 0.333375,0.333375 0 0 1 0,0.10584 0.238125,0.238125 0 0 1 0.22225,-0.12436 q 0.230187,0 0.230187,0.26458 v 0.49213 H 70.251 v -0.46567 c 0,-0.127 -0.04763,-0.19579 -0.145521,-0.19579 -0.0979,0 -0.193146,0.0873 -0.193146,0.25136 v 0.40745 H 69.8065 v -0.52916 a 1.6880416,1.6880416 0 0 0 -0.0079,-0.20638 z"
       style="fill:#0083e6;stroke-width:0.264583"
       id="path190" />
    <path
       d="m 71.161166,122.48065 h -0.502708 c 0,0.18521 0.07673,0.26458 0.211667,0.26458 a 0.17991666,0.17991666 0 0 0 0.174625,-0.11641 h 0.0979 a 0.26458333,0.26458333 0 0 1 -0.264584,0.19314 c -0.193146,0 -0.3175,-0.14287 -0.3175,-0.37571 0,-0.23283 0.124354,-0.39687 0.3175,-0.39687 0.193146,0 0.301625,0.14552 0.301625,0.37835 a 0.06614583,0.06614583 0 0 0 -0.01852,0.0529 z m -0.105833,-0.0873 c 0,-0.14288 -0.07673,-0.23019 -0.193146,-0.23019 -0.116416,0 -0.174625,0.0767 -0.193146,0.23019 z"
       style="fill:#0083e6;stroke-width:0.264583"
       id="path192" />
    <path
       d="m 71.325208,122.09171 h 0.105833 a 0.333375,0.333375 0 0 1 0,0.10584 0.238125,0.238125 0 0 1 0.22225,-0.12436 c 0.153459,0 0.232834,0.0873 0.232834,0.26458 v 0.49213 h -0.108479 v -0.46567 c 0,-0.127 -0.04763,-0.19579 -0.142875,-0.19579 -0.09525,0 -0.193146,0.0873 -0.193146,0.25136 v 0.40745 h -0.108479 v -0.52916 a 0.56885416,0.56885416 0 0 0 -0.0079,-0.20638 z"
       style="fill:#0083e6;stroke-width:0.264583"
       id="path194" />
    <path
       d="m 72.203625,122.1023 a 0.08466667,0.08466667 0 0 1 0.08731,0.0873 0.0873125,0.0873125 0 1 1 -0.171979,0 0.08466667,0.08466667 0 0 1 0.08467,-0.0873 z m 0,0.56885 a 0.0873125,0.0873125 0 0 1 0.08731,0.0873 0.0873125,0.0873125 0 1 1 -0.171979,0 0.08466667,0.08466667 0 0 1 0.08467,-0.0873 z"
       style="fill:#0083e6;stroke-width:0.264583"
       id="path196" />
  </g>
</svg>
