<svg width="196" height="196" xmlns="http://www.w3.org/2000/svg" xmlns:xlink="http://www.w3.org/1999/xlink">
    <defs>
        <circle id="b" cx="98" cy="98" r="71.25"/>
    </defs>
    <g fill="none" fill-rule="evenodd">
        <circle fill-opacity=".15" fill="#6E7E93" cx="98" cy="98" r="98"/>
        <g stroke-linecap="square">
            <use fill="#000" filter="url(#a)" xlink:href="#b"/>
            <use stroke="#AFCD42" stroke-width="2" fill="#FFF" xlink:href="#b"/>
        </g>
        <circle fill="#AFCD42" cx="98.5" cy="98.5" r="59.5"/>
        <g transform="translate(67 67)">
            <path d="M20.613 48S0 36.523 0 21.632C0 4.062 11.394 0 20.613 0 29.099 0 40 4.596 40 21.632 40 37.008 20.613 48 20.613 48z" stroke="#FFF" stroke-width="3"/>
            <circle stroke="#FFF" stroke-width="3" cx="19.5" cy="18.5" r="8.5"/>
            <path d="m54.369 52 .337-3.018c2.861-1.31 4.959-3.01 6.293-5.102C62.333 41.788 63 39.513 63 37.054c0-1.15-.209-2.276-.627-3.377a7.664 7.664 0 0 0-1.953-2.899c-.884-.83-2.017-1.5-3.399-2.012-1.382-.51-3.038-.766-4.966-.766-1.576 0-3.006.216-4.292.647a11.316 11.316 0 0 0-3.423 1.82 12.18 12.18 0 0 0-2.58 2.779 15.377 15.377 0 0 0-1.76 3.52l6.268 1.965c.515-1.47 1.206-2.515 2.074-3.138.868-.623 1.928-.934 3.182-.934 1.35 0 2.274.311 2.773.934.498.623.747 1.365.747 2.227 0 .735-.112 1.453-.338 2.156-.225.703-.61 1.381-1.157 2.036-.546.655-1.278 1.27-2.194 1.844-.916.575-2.049 1.086-3.399 1.533L48.438 52h5.931zM55 63v-8h-7v8z" fill="#FFF" fill-rule="nonzero"/>
        </g>
    </g>
</svg>
