<svg width="56" height="56" xmlns="http://www.w3.org/2000/svg" xmlns:xlink="http://www.w3.org/1999/xlink">
    <defs>
        <filter x="-22.7%" y="-18.2%" width="145.5%" height="145.5%" filterUnits="objectBoundingBox" id="a">
            <feOffset dy="2" in="SourceAlpha" result="shadowOffsetOuter1"/>
            <feGaussianBlur stdDeviation="3" in="shadowOffsetOuter1" result="shadowBlurOuter1"/>
            <feColorMatrix values="0 0 0 0 0.214548597 0 0 0 0 0.237797284 0 0 0 0 0.264798814 0 0 0 0.208888767 0" in="shadowBlurOuter1"/>
        </filter>
        <circle id="b" cx="22" cy="22" r="22"/>
    </defs>
    <g fill="none" fill-rule="evenodd">
        <g transform="translate(6 4)">
            <use fill="#000" filter="url(#a)" xlink:href="#b"/>
            <use fill="#0093D7" xlink:href="#b"/>
        </g>
        <path d="M28 12.998a2.641 2.641 0 0 1 2.626 2.626c0 .702-.274 1.36-.752 1.85l-.135.13-.077.063v.629l.268.057a8.864 8.864 0 0 1 2.307.902l.309.182.244.157.463-.462-.009-.102a2.666 2.666 0 0 1 .52-1.728l.13-.163.131-.14a2.646 2.646 0 0 1 3.73 0 2.646 2.646 0 0 1 0 3.73 2.738 2.738 0 0 1-1.848.78l-.187-.002-.098-.008-.463.463.162.251c.442.716.776 1.472.995 2.265l.087.343.056.27h.627l.065-.076c.412-.463.97-.766 1.582-.858l.206-.023.19-.006a2.62 2.62 0 0 1 2.627 2.626 2.641 2.641 0 0 1-2.626 2.626c-.702 0-1.36-.275-1.85-.752l-.13-.135-.064-.077h-.629l-.056.268a8.864 8.864 0 0 1-.902 2.306l-.182.31-.158.244.463.463.102-.009a2.666 2.666 0 0 1 1.728.52l.163.13.14.131a2.646 2.646 0 0 1 0 3.73 2.646 2.646 0 0 1-3.73 0 2.738 2.738 0 0 1-.78-1.848l.001-.187.008-.098-.463-.463-.25.162a8.724 8.724 0 0 1-2.266.995l-.342.087-.271.056v.627l.077.064c.462.413.766.97.858 1.583l.022.206.007.19A2.62 2.62 0 0 1 28 40.51a2.62 2.62 0 0 1-2.626-2.627c0-.701.274-1.36.752-1.85l.135-.129.076-.064v-.629l-.267-.056a8.864 8.864 0 0 1-2.307-.903l-.309-.181-.246-.158-.462.462.01.103a2.666 2.666 0 0 1-.52 1.728l-.13.163-.131.14a2.646 2.646 0 0 1-3.73 0 2.646 2.646 0 0 1 0-3.73 2.738 2.738 0 0 1 1.848-.78l.187.001.096.008.464-.464-.161-.25a8.724 8.724 0 0 1-.995-2.265l-.087-.342-.057-.271h-.627l-.064.077c-.412.462-.97.766-1.582.858l-.206.022-.19.007a2.62 2.62 0 0 1-2.627-2.626 2.641 2.641 0 0 1 2.626-2.626c.702 0 1.36.274 1.85.751l.13.136.063.076h.629l.057-.268a8.864 8.864 0 0 1 .902-2.306l.182-.309.157-.246-.462-.462-.102.01a2.666 2.666 0 0 1-1.728-.52l-.163-.13-.14-.131a2.646 2.646 0 0 1 0-3.73 2.646 2.646 0 0 1 3.73 0c.483.483.762 1.162.78 1.847l-.001.188-.009.097.463.462.251-.16a8.724 8.724 0 0 1 2.266-.995l.342-.087.27-.057v-.627l-.076-.064a2.645 2.645 0 0 1-.858-1.583l-.022-.206-.007-.19A2.62 2.62 0 0 1 28 12.998zm-.018 24.059-.017.019a.745.745 0 0 1-.273.158.684.684 0 0 0-.388.616c0 .355.308.663.663.663a.677.677 0 0 0 .663-.663.674.674 0 0 0-.35-.599.904.904 0 0 1-.2-.111l-.098-.083zm9.521-2.463c0 .469-.154.86-.492 1.197-.484.45-1.19.57-1.779.353a1.65 1.65 0 0 0 1.816-.342 1.648 1.648 0 0 0 .277-1.946l.058.129c.078.196.12.403.12.61zm-17.887-.477c-.132.133-.186.268-.186.477 0 .161.077.348.186.477.239.24.696.24.954 0a.63.63 0 0 0 .155-.69.943.943 0 0 1-.06-.233l-.008-.122-.083-.004-.13-.02-.132-.037a.633.633 0 0 0-.696.152zm16.012-.155a.943.943 0 0 1-.234.06l-.122.007-.003.084a1.195 1.195 0 0 1-.022.13l-.036.132a.633.633 0 0 0 .153.696c.238.24.696.24.954 0 .132-.132.185-.268.185-.477a.795.795 0 0 0-.185-.477.63.63 0 0 0-.69-.155zm-2.763-1.37-.241.19a7.687 7.687 0 0 1-3.626 1.506l-.331.038-.001.034.424-.061a7.672 7.672 0 0 0 3.175-1.235l.291-.203.334-.244-.025-.025zm-4.874-12.76-.061.055c-.143.116-.32.194-.516.222a6.714 6.714 0 0 0-3.679 1.514.936.936 0 0 1-.542.22h-.068v.015a.978.978 0 0 1-.147.46l-.074.102a6.732 6.732 0 0 0-1.517 3.698 1 1 0 0 1-.216.513l-.06.064.056.062c.092.115.16.25.199.4l.022.116a6.714 6.714 0 0 0 1.514 3.679c.14.167.218.362.234.56l.001.093.063.004a.944.944 0 0 1 .424.144l.076.063a6.732 6.732 0 0 0 3.698 1.518 1 1 0 0 1 .512.215l.065.059.062-.054c.114-.092.25-.161.4-.2l.116-.022a6.714 6.714 0 0 0 3.678-1.514.999.999 0 0 1 .56-.233l.049-.002.001-.033c.01-.16.059-.32.147-.46l.075-.103a6.732 6.732 0 0 0 1.517-3.697c.024-.19.095-.36.202-.496l.09-.101-.039-.043a1.046 1.046 0 0 1-.199-.4l-.022-.115a6.714 6.714 0 0 0-1.514-3.68.999.999 0 0 1-.234-.558l-.001-.051h-.034a.978.978 0 0 1-.46-.147l-.102-.074a6.732 6.732 0 0 0-3.698-1.518 1 1 0 0 1-.513-.215l-.065-.06zm7.581 7.586-.032.29a7.708 7.708 0 0 1-1.513 3.672l-.189.239.025.025.244-.334a7.939 7.939 0 0 0 1.38-3.132l.058-.336.064-.423-.037-.001zm-15.178-.03-2.029-.001c.019 0 .024.002.024.006l-.008.016c-.288.575-.863.941-1.51.941a1.675 1.675 0 0 1-1.45-.856c.267.527.811.886 1.45.886.5 0 .965-.224 1.279-.607l.098-.134.149-.222h1.995l.026.179-.024-.209zm18.736-1.33a.674.674 0 0 0-.6.35.904.904 0 0 1-.11.2l-.084.096.019.018a.763.763 0 0 1 .12.175l.039.098c.12.24.352.388.616.388a.677.677 0 0 0 .662-.662.677.677 0 0 0-.662-.663zm-22.26-.033a.677.677 0 0 0-.662.662c0 .355.307.663.662.663a.674.674 0 0 0 .6-.35.904.904 0 0 1 .11-.2l.083-.097-.018-.017a.763.763 0 0 1-.12-.175l-.039-.098a.684.684 0 0 0-.616-.388zm1.63-6.879.016.086c.066.29.211.565.436.79.36.36.848.53 1.346.483l.167-.023.26-.05 1.383 1.383.02-.027-1.384-1.388-.035-.022c-.622.236-1.296.09-1.793-.408a1.887 1.887 0 0 1-.417-.824zm16.897-.776a.63.63 0 0 0-.155.69c.03.076.05.154.06.234l.007.12.083.005c.044.004.087.011.131.021l.132.036c.247.096.503.04.696-.152.132-.133.186-.268.186-.477a.795.795 0 0 0-.186-.477c-.239-.239-.697-.239-.954 0zm-15.748-.033c-.132.132-.186.268-.186.477 0 .16.078.348.186.477a.63.63 0 0 0 .69.155.94.94 0 0 1 .354-.068l.005-.083a1.24 1.24 0 0 1 .058-.262.633.633 0 0 0-.153-.696c-.239-.24-.696-.24-.954 0zM28 14.928a.677.677 0 0 0-.663.663c0 .264.148.496.35.599.07.028.138.066.2.111l.097.082.017-.017a.763.763 0 0 1 .175-.12l.099-.04a.684.684 0 0 0 .388-.615.677.677 0 0 0-.663-.663z" fill="#FFF" fill-rule="nonzero"/>
    </g>
</svg>
