<svg width="196" height="196" xmlns="http://www.w3.org/2000/svg" xmlns:xlink="http://www.w3.org/1999/xlink">
    <defs>
        <circle id="b" cx="98" cy="98" r="71.25"/>
    </defs>
    <g fill="none" fill-rule="evenodd">
        <circle fill-opacity=".15" fill="#6E7E93" cx="98" cy="98" r="98"/>
        <g stroke-linecap="square">
            <use fill="#000" filter="url(#a)" xlink:href="#b"/>
            <use stroke="#AFCD42" stroke-width="2" fill="#FFF" xlink:href="#b"/>
        </g>
        <circle fill="#AFCD42" cx="98" cy="98" r="59.5"/>
        <path d="M81.003 101.09c11.134-3.407 20.169-7.96 26.13-13.172 5.584-4.882 9.666-11.915 6.435-17.937-4.359-7.572-16.528-5.857-20.316-4.68-15.545 5.616-18.11 16.344-24.098 20.923-4.438 2.893-16.892 11.353-9.091 20.688 7.035 8.349 13.88-.066 15.824-1.873 1.828-1.7 3.555-3.306 5.116-3.95zm-18.029 2.924c-4.363-4.717-.64-10.29 7.148-15.61l8.05 10.35c-1.273.9-2.52 2.077-3.813 3.3-4.075 3.856-7.128 7.133-11.385 1.96zm17.883-5.916-8.372-10.632c1.772-1.782 9.648-11.66 11.56-13.36 7.224-6.425 21.397-11.031 27.587-2.834 4.29 7.258-7.61 19.64-30.775 26.826zm8.665 8.525c-2.536.78-13.246 2.5-9.534 12.768 4.184 11.423 17.737 4.867 22.462 2.47 6.958-2.895 17.532.247 30.17-10.408 2.912-2.692 10.482-12.373 6.104-19.934-3.599-5.81-11.732-5.791-18.752-3.396-7.493 2.557-15.954 8.104-24.471 16.044-1.337 1.03-3.593 1.722-5.979 2.456zm1.397 2.276c1.706-.508 3.35-1 4.765-1.652l4.938 12.147c-8.501 4.084-15.191 4.521-17.093-1.616-2.352-6.273 2.013-7.277 7.39-8.88zm45.822-16.17c4.003 9.46-7.071 19.43-16.25 22.474-2.426.805-14.919 2.687-17.349 3.33l-5.021-12.566C115.925 89.5 132.6 85.384 136.74 92.728z" fill="#FFF" fill-rule="nonzero"/>
    </g>
</svg>
